<svg version="1.1" xmlns="http://www.w3.org/2000/svg" xmlns:xlink="http://www.w3.org/1999/xlink" width="724" height="520"><defs/><g><g transform="translate(2,-62) scale(1,1)"><rect fill="#C0C0C0" stroke="none" x="417" y="391" width="119.39453125" height="90" opacity="0.2"/></g><g transform="translate(2,-62) scale(1,1)"><rect fill="#ffffff" stroke="none" x="410" y="384" width="119.39453125" height="90"/></g><g transform="translate(2,-62) scale(1,1)"><path fill="none" stroke="#000000" d="M 410 384 L 529.39453125 384 L 529.39453125 474 L 410 474 L 410 384 Z Z" stroke-miterlimit="10"/></g><g transform="translate(2,-62) scale(1,1)"><rect fill="#ffffff" stroke="none" x="400" y="391" width="20" height="10"/></g><g transform="translate(2,-62) scale(1,1)"><path fill="none" stroke="#000000" d="M 400 391 L 420 391 L 420 401 L 400 401 L 400 391 Z Z" stroke-miterlimit="10"/></g><g transform="translate(2,-62) scale(1,1)"><rect fill="#ffffff" stroke="none" x="400" y="411" width="20" height="10"/></g><g transform="translate(2,-62) scale(1,1)"><path fill="none" stroke="#000000" d="M 400 411 L 420 411 L 420 421 L 400 421 L 400 411 Z Z" stroke-miterlimit="10"/></g><g transform="translate(2,-62) scale(1,1)"><path fill="none" stroke="#000000" d="M 420 422 L 529.39453125 422" stroke-miterlimit="10"/></g><g transform="translate(2,-62) scale(1,1)"><g><path fill="none" stroke="none"/><text fill="#000000" stroke="none" font-family="Arial" font-size="13px" font-style="normal" font-weight="normal" text-decoration="none" x="446.878662109375" y="399.7099609375">«service»</text></g></g><g transform="translate(2,-62) scale(1,1)"><g><path fill="none" stroke="none"/><text fill="#000000" stroke="none" font-family="Arial" font-size="13px" font-style="normal" font-weight="bold" text-decoration="none" x="426.305908203125" y="414.7099609375">ProductCatalog</text></g></g><g transform="translate(2,-62) scale(1,1)"><g><path fill="none" stroke="none"/><text fill="#000000" stroke="none" font-family="Arial" font-size="13px" font-style="normal" font-weight="normal" text-decoration="none" x="425" y="437.7099609375">+filter()</text></g></g><g transform="translate(2,-62) scale(1,1)"><g><path fill="none" stroke="none"/><text fill="#000000" stroke="none" font-family="Arial" font-size="13px" font-style="normal" font-weight="normal" text-decoration="none" x="425" y="452.7099609375">+sort()</text></g></g><g transform="translate(2,-62) scale(1,1)"><g><path fill="none" stroke="none"/><text fill="#000000" stroke="none" font-family="Arial" font-size="13px" font-style="normal" font-weight="normal" text-decoration="none" x="425" y="467.7099609375">+search()</text></g></g><g transform="translate(2,-62) scale(1,1)"><rect fill="#C0C0C0" stroke="none" x="225" y="391" width="111.47265625" height="75" opacity="0.2"/></g><g transform="translate(2,-62) scale(1,1)"><rect fill="#ffffff" stroke="none" x="218" y="384" width="111.47265625" height="75"/></g><g transform="translate(2,-62) scale(1,1)"><path fill="none" stroke="#000000" d="M 218 384 L 329.47265625 384 L 329.47265625 459 L 218 459 L 218 384 Z Z" stroke-miterlimit="10"/></g><g transform="translate(2,-62) scale(1,1)"><rect fill="#ffffff" stroke="none" x="208" y="391" width="20" height="10"/></g><g transform="translate(2,-62) scale(1,1)"><path fill="none" stroke="#000000" d="M 208 391 L 228 391 L 228 401 L 208 401 L 208 391 Z Z" stroke-miterlimit="10"/></g><g transform="translate(2,-62) scale(1,1)"><rect fill="#ffffff" stroke="none" x="208" y="411" width="20" height="10"/></g><g transform="translate(2,-62) scale(1,1)"><path fill="none" stroke="#000000" d="M 208 411 L 228 411 L 228 421 L 208 421 L 208 411 Z Z" stroke-miterlimit="10"/></g><g transform="translate(2,-62) scale(1,1)"><path fill="none" stroke="#000000" d="M 228 422 L 329.47265625 422" stroke-miterlimit="10"/></g><g transform="translate(2,-62) scale(1,1)"><g><path fill="none" stroke="none"/><text fill="#000000" stroke="none" font-family="Arial" font-size="13px" font-style="normal" font-weight="normal" text-decoration="none" x="250.917724609375" y="399.7099609375">«service»</text></g></g><g transform="translate(2,-62) scale(1,1)"><g><path fill="none" stroke="none"/><text fill="#000000" stroke="none" font-family="Arial" font-size="13px" font-style="normal" font-weight="bold" text-decoration="none" x="234.305908203125" y="414.7099609375">OrderManager</text></g></g><g transform="translate(2,-62) scale(1,1)"><g><path fill="none" stroke="none"/><text fill="#000000" stroke="none" font-family="Arial" font-size="13px" font-style="normal" font-weight="normal" text-decoration="none" x="233" y="437.7099609375">+handleOrder()</text></g></g><g transform="translate(2,-62) scale(1,1)"><rect fill="#C0C0C0" stroke="none" x="25" y="391" width="106.08349609375" height="60" opacity="0.2"/></g><g transform="translate(2,-62) scale(1,1)"><rect fill="#ffffff" stroke="none" x="18" y="384" width="106.08349609375" height="60"/></g><g transform="translate(2,-62) scale(1,1)"><path fill="none" stroke="#000000" d="M 18 384 L 124.08349609375 384 L 124.08349609375 444 L 18 444 L 18 384 Z Z" stroke-miterlimit="10"/></g><g transform="translate(2,-62) scale(1,1)"><rect fill="#ffffff" stroke="none" x="8" y="391" width="20" height="10"/></g><g transform="translate(2,-62) scale(1,1)"><path fill="none" stroke="#000000" d="M 8 391 L 28 391 L 28 401 L 8 401 L 8 391 Z Z" stroke-miterlimit="10"/></g><g transform="translate(2,-62) scale(1,1)"><rect fill="#ffffff" stroke="none" x="8" y="411" width="20" height="10"/></g><g transform="translate(2,-62) scale(1,1)"><path fill="none" stroke="#000000" d="M 8 411 L 28 411 L 28 421 L 8 421 L 8 411 Z Z" stroke-miterlimit="10"/></g><g transform="translate(2,-62) scale(1,1)"><path fill="none" stroke="#000000" d="M 28 422 L 124.08349609375 422" stroke-miterlimit="10"/></g><g transform="translate(2,-62) scale(1,1)"><g><path fill="none" stroke="none"/><text fill="#000000" stroke="none" font-family="Arial" font-size="13px" font-style="normal" font-weight="normal" text-decoration="none" x="48.22314453125" y="399.7099609375">«service»</text></g></g><g transform="translate(2,-62) scale(1,1)"><g><path fill="none" stroke="none"/><text fill="#000000" stroke="none" font-family="Arial" font-size="13px" font-style="normal" font-weight="bold" text-decoration="none" x="45.703125" y="414.53857421875">Customer</text></g></g><g transform="translate(2,-62) scale(1,1)"><g><path fill="none" stroke="none"/><text fill="#000000" stroke="none" font-family="Arial" font-size="13px" font-style="normal" font-weight="normal" text-decoration="none" x="33" y="437.7099609375">+authenticate()</text></g></g><g transform="translate(2,-62) scale(1,1)"><rect fill="#C0C0C0" stroke="none" x="241" y="79" width="294" height="44" opacity="0.2"/></g><g transform="translate(2,-62) scale(1,1)"><rect fill="#ffffff" stroke="none" x="234" y="72" width="294" height="44"/></g><g transform="translate(2,-62) scale(1,1)"><path fill="none" stroke="#000000" d="M 234 72 L 528 72 L 528 116 L 234 116 L 234 72 Z Z" stroke-miterlimit="10"/></g><g transform="translate(2,-62) scale(1,1)"><rect fill="#ffffff" stroke="none" x="224" y="79" width="20" height="10"/></g><g transform="translate(2,-62) scale(1,1)"><path fill="none" stroke="#000000" d="M 224 79 L 244 79 L 244 89 L 224 89 L 224 79 Z Z" stroke-miterlimit="10"/></g><g transform="translate(2,-62) scale(1,1)"><rect fill="#ffffff" stroke="none" x="224" y="99" width="20" height="10"/></g><g transform="translate(2,-62) scale(1,1)"><path fill="none" stroke="#000000" d="M 224 99 L 244 99 L 244 109 L 224 109 L 224 99 Z Z" stroke-miterlimit="10"/></g><g transform="translate(2,-62) scale(1,1)"><g><path fill="none" stroke="none"/><text fill="#000000" stroke="none" font-family="Arial" font-size="13px" font-style="normal" font-weight="normal" text-decoration="none" x="366.845947265625" y="87.7099609375">«web»</text></g></g><g transform="translate(2,-62) scale(1,1)"><g><path fill="none" stroke="none"/><text fill="#000000" stroke="none" font-family="Arial" font-size="13px" font-style="normal" font-weight="bold" text-decoration="none" x="352.779541015625" y="102.53857421875">StoreFront</text></g></g><g transform="translate(2,-62) scale(1,1)"><rect fill="#C0C0C0" stroke="none" x="145" y="191" width="478" height="60" opacity="0.2"/></g><g transform="translate(2,-62) scale(1,1)"><rect fill="#ffffff" stroke="none" x="138" y="184" width="478" height="60"/></g><g transform="translate(2,-62) scale(1,1)"><path fill="none" stroke="#000000" d="M 138 184 L 616 184 L 616 244 L 138 244 L 138 184 Z Z" stroke-miterlimit="10"/></g><g transform="translate(2,-62) scale(1,1)"><rect fill="#ffffff" stroke="none" x="128" y="191" width="20" height="10"/></g><g transform="translate(2,-62) scale(1,1)"><path fill="none" stroke="#000000" d="M 128 191 L 148 191 L 148 201 L 128 201 L 128 191 Z Z" stroke-miterlimit="10"/></g><g transform="translate(2,-62) scale(1,1)"><rect fill="#ffffff" stroke="none" x="128" y="211" width="20" height="10"/></g><g transform="translate(2,-62) scale(1,1)"><path fill="none" stroke="#000000" d="M 128 211 L 148 211 L 148 221 L 128 221 L 128 211 Z Z" stroke-miterlimit="10"/></g><g transform="translate(2,-62) scale(1,1)"><path fill="none" stroke="#000000" d="M 148 222 L 616 222" stroke-miterlimit="10"/></g><g transform="translate(2,-62) scale(1,1)"><g><path fill="none" stroke="none"/><text fill="#000000" stroke="none" font-family="Arial" font-size="13px" font-style="normal" font-weight="normal" text-decoration="none" x="354.181396484375" y="199.7099609375">«service»</text></g></g><g transform="translate(2,-62) scale(1,1)"><g><path fill="none" stroke="none"/><text fill="#000000" stroke="none" font-family="Arial" font-size="13px" font-style="normal" font-weight="bold" text-decoration="none" x="355.263671875" y="214.53857421875">Gateway</text></g></g><g transform="translate(2,-62) scale(1,1)"><g><path fill="none" stroke="none"/><text fill="#000000" stroke="none" font-family="Arial" font-size="13px" font-style="normal" font-weight="normal" text-decoration="none" x="153" y="237.7099609375">+authorization()</text></g></g><g transform="translate(2,-62) scale(1,1)"><path fill="#C0C0C0" stroke="none" d="M 62.7099609375 242.5 C 62.7099609375 236.1487248 67.8586857375 231 74.2099609375 231 C 80.5612361375 231 85.7099609375 236.1487248 85.7099609375 242.5 C 85.7099609375 248.8512752 80.5612361375 254 74.2099609375 254 C 67.8586857375 254 62.7099609375 248.8512752 62.7099609375 242.5 Z" opacity="0.2"/></g><g transform="translate(2,-62) scale(1,1)"><path fill="none" stroke="#000000" d="M 55.5 235 A 11.5 11.5 0 0 1 78.5 235" stroke-miterlimit="10"/></g><g transform="translate(2,-62) scale(1,1)"><path fill="#ffffff" stroke="none" d="M 58.7099609375 235.5 C 58.7099609375 230.8055792 62.5155401375 227 67.2099609375 227 C 71.9043817375 227 75.7099609375 230.8055792 75.7099609375 235.5 C 75.7099609375 240.1944208 71.9043817375 244 67.2099609375 244 C 62.5155401375 244 58.7099609375 240.1944208 58.7099609375 235.5 Z"/></g><g transform="translate(2,-62) scale(1,1)"><path fill="none" stroke="#000000" d="M 58.7099609375 235.5 C 58.7099609375 230.8055792 62.5155401375 227 67.2099609375 227 C 71.9043817375 227 75.7099609375 230.8055792 75.7099609375 235.5 C 75.7099609375 240.1944208 71.9043817375 244 67.2099609375 244 C 62.5155401375 244 58.7099609375 240.1944208 58.7099609375 235.5 Z" stroke-miterlimit="10"/></g><g transform="translate(2,-62) scale(1,1)"><g><path fill="none" stroke="none"/><text fill="#000000" stroke="none" font-family="Arial" font-size="13px" font-style="normal" font-weight="bold" text-decoration="none" x="67.2099609375" y="260"></text></g></g><g transform="translate(2,-62) scale(1,1)"><path fill="none" stroke="#000000" d="M 66 383 L 67 247" stroke-miterlimit="10"/></g><g transform="translate(2,-62) scale(1,1)"><path fill="none" stroke="#000000" d="M 223 95 L 64 96 L 67 224" stroke-miterlimit="10"/></g><g transform="translate(2,-62) scale(1,1)"><path fill="none" stroke="#000000" d="M 375 117 L 373 183" stroke-miterlimit="10" stroke-dasharray="3"/></g><g transform="translate(2,-62) scale(1,1)"><path fill="#FFFFFF" stroke="none" d="M 365.2004644085798 162.4289707462614 L 373 183 L 382.03080977450634 162.93898121189554"/></g><g transform="translate(2,-62) scale(1,1)"><path fill="none" stroke="#000000" d="M 365.2004644085798 162.4289707462614 L 373 183 L 382.03080977450634 162.93898121189554 L 365.2004644085798 162.4289707462614" stroke-miterlimit="10"/></g><g transform="translate(2,-62) scale(1,1)"><rect fill="#C0C0C0" stroke="none" x="609" y="391" width="98.44091796875" height="44" opacity="0.2"/></g><g transform="translate(2,-62) scale(1,1)"><rect fill="#ffffff" stroke="none" x="602" y="384" width="98.44091796875" height="44"/></g><g transform="translate(2,-62) scale(1,1)"><path fill="none" stroke="#000000" d="M 602 384 L 700.44091796875 384 L 700.44091796875 428 L 602 428 L 602 384 Z Z" stroke-miterlimit="10"/></g><g transform="translate(2,-62) scale(1,1)"><rect fill="#ffffff" stroke="none" x="592" y="391" width="20" height="10"/></g><g transform="translate(2,-62) scale(1,1)"><path fill="none" stroke="#000000" d="M 592 391 L 612 391 L 612 401 L 592 401 L 592 391 Z Z" stroke-miterlimit="10"/></g><g transform="translate(2,-62) scale(1,1)"><rect fill="#ffffff" stroke="none" x="592" y="411" width="20" height="10"/></g><g transform="translate(2,-62) scale(1,1)"><path fill="none" stroke="#000000" d="M 592 411 L 612 411 L 612 421 L 592 421 L 592 411 Z Z" stroke-miterlimit="10"/></g><g transform="translate(2,-62) scale(1,1)"><g><path fill="none" stroke="none"/><text fill="#000000" stroke="none" font-family="Arial" font-size="13px" font-style="normal" font-weight="normal" text-decoration="none" x="628.40185546875" y="399.7099609375">«service»</text></g></g><g transform="translate(2,-62) scale(1,1)"><g><path fill="none" stroke="none"/><text fill="#000000" stroke="none" font-family="Arial" font-size="13px" font-style="normal" font-weight="bold" text-decoration="none" x="626.964111328125" y="414.471923828125">Inventory</text></g></g><g transform="translate(2,-62) scale(1,1)"><rect fill="#C0C0C0" stroke="none" x="41" y="535" width="678" height="44" opacity="0.2"/></g><g transform="translate(2,-62) scale(1,1)"><rect fill="#ffffff" stroke="none" x="34" y="528" width="678" height="44"/></g><g transform="translate(2,-62) scale(1,1)"><path fill="none" stroke="#000000" d="M 34 528 L 712 528 L 712 572 L 34 572 L 34 528 Z Z" stroke-miterlimit="10"/></g><g transform="translate(2,-62) scale(1,1)"><rect fill="#ffffff" stroke="none" x="24" y="535" width="20" height="10"/></g><g transform="translate(2,-62) scale(1,1)"><path fill="none" stroke="#000000" d="M 24 535 L 44 535 L 44 545 L 24 545 L 24 535 Z Z" stroke-miterlimit="10"/></g><g transform="translate(2,-62) scale(1,1)"><rect fill="#ffffff" stroke="none" x="24" y="555" width="20" height="10"/></g><g transform="translate(2,-62) scale(1,1)"><path fill="none" stroke="#000000" d="M 24 555 L 44 555 L 44 565 L 24 565 L 24 555 Z Z" stroke-miterlimit="10"/></g><g transform="translate(2,-62) scale(1,1)"><g><path fill="none" stroke="none"/><text fill="#000000" stroke="none" font-family="Arial" font-size="13px" font-style="normal" font-weight="bold" text-decoration="none" x="329.58642578125" y="545.7099609375">MessageBroker</text></g></g><g transform="translate(2,-62) scale(1,1)"><path fill="none" stroke="#000000" d="M 373 245 L 376 304 L 272 304 L 269 383" stroke-miterlimit="10" stroke-dasharray="3"/></g><g transform="translate(2,-62) scale(1,1)"><path fill="#FFFFFF" stroke="none" d="M 261.358321169399 362.3698098736356 L 269 383 L 278.18426441475236 363.00876974371226"/></g><g transform="translate(2,-62) scale(1,1)"><path fill="none" stroke="#000000" d="M 261.358321169399 362.3698098736356 L 269 383 L 278.18426441475236 363.00876974371226 L 261.358321169399 362.3698098736356" stroke-miterlimit="10"/></g><g transform="translate(2,-62) scale(1,1)"><path fill="none" stroke="#000000" d="M 298 460 L 350 527" stroke-miterlimit="10" stroke-dasharray="3"/></g><g transform="translate(2,-62) scale(1,1)"><path fill="#FFFFFF" stroke="none" d="M 330.8871143926661 516.1051570107244 L 350 527 L 344.18896633669095 505.7813316213319"/></g><g transform="translate(2,-62) scale(1,1)"><path fill="none" stroke="#000000" d="M 330.8871143926661 516.1051570107244 L 350 527 L 344.18896633669095 505.7813316213319 L 330.8871143926661 516.1051570107244" stroke-miterlimit="10"/></g><g transform="translate(2,-62) scale(1,1)"><g><path fill="none" stroke="none"/><text fill="#000000" stroke="none" font-family="Arial" font-size="13px" font-style="normal" font-weight="normal" text-decoration="none" x="328.206787109375" y="474.7099609375">+publish</text></g></g><g transform="translate(2,-62) scale(1,1)"><path fill="none" stroke="#000000" d="M 386 527 L 428 475" stroke-miterlimit="10" stroke-dasharray="3"/></g><g transform="translate(2,-62) scale(1,1)"><path fill="#FFFFFF" stroke="none" d="M 421.77834298178385 496.10191896363176 L 428 475 L 408.6793141369695 485.52193412743554"/></g><g transform="translate(2,-62) scale(1,1)"><path fill="none" stroke="#000000" d="M 421.77834298178385 496.10191896363176 L 428 475 L 408.6793141369695 485.52193412743554 L 421.77834298178385 496.10191896363176" stroke-miterlimit="10"/></g><g transform="translate(2,-62) scale(1,1)"><g><path fill="none" stroke="none"/><text fill="#000000" stroke="none" font-family="Arial" font-size="13px" font-style="normal" font-weight="normal" text-decoration="none" x="422.5" y="505.7099609375">+subcribe</text></g></g><g transform="translate(2,-62) scale(1,1)"><path fill="none" stroke="#000000" d="M 487 527 L 648 496 L 647 429" stroke-miterlimit="10" stroke-dasharray="3"/></g><g transform="translate(2,-62) scale(1,1)"><path fill="#FFFFFF" stroke="none" d="M 655.7214275726164 449.1974429345797 L 647 429 L 638.8852317165548 449.4487294398941"/></g><g transform="translate(2,-62) scale(1,1)"><path fill="none" stroke="#000000" d="M 655.7214275726164 449.1974429345797 L 647 429 L 638.8852317165548 449.4487294398941 L 655.7214275726164 449.1974429345797" stroke-miterlimit="10"/></g><g transform="translate(2,-62) scale(1,1)"><g><path fill="none" stroke="none"/><text fill="#000000" stroke="none" font-family="Arial" font-size="13px" font-style="normal" font-weight="normal" text-decoration="none" x="589.5" y="482.7099609375">+subcribe</text></g></g><g transform="translate(2,-62) scale(1,1)"><path fill="none" stroke="#000000" d="M 317 527 L 125 441" stroke-miterlimit="10" stroke-dasharray="3"/></g><g transform="translate(2,-62) scale(1,1)"><path fill="#FFFFFF" stroke="none" d="M 146.99111531700095 441.6251776662407 L 125 441 L 140.10799939926156 456.9921341337519"/></g><g transform="translate(2,-62) scale(1,1)"><path fill="none" stroke="#000000" d="M 146.99111531700095 441.6251776662407 L 125 441 L 140.10799939926156 456.9921341337519 L 146.99111531700095 441.6251776662407" stroke-miterlimit="10"/></g><g transform="translate(2,-62) scale(1,1)"><g><path fill="none" stroke="none"/><text fill="#000000" stroke="none" font-family="Arial" font-size="13px" font-style="normal" font-weight="normal" text-decoration="none" x="158.5" y="501.7099609375">+subcribe</text></g></g></g></svg>