<svg version="1.1" xmlns="http://www.w3.org/2000/svg" xmlns:xlink="http://www.w3.org/1999/xlink" width="370.6708984375" height="110"><defs/><g><g transform="translate(-238,-126) scale(1,1)"><rect fill="#C0C0C0" stroke="none" x="255" y="143" width="133.75537109375" height="90" opacity="0.2"/></g><g transform="translate(-238,-126) scale(1,1)"><rect fill="#ffffff" stroke="none" x="248" y="136" width="133.75537109375" height="90"/></g><g transform="translate(-238,-126) scale(1,1)"><path fill="none" stroke="#000000" d="M 248 136 L 381.75537109375 136 L 381.75537109375 226 L 248 226 L 248 136 Z Z" stroke-miterlimit="10"/></g><g transform="translate(-238,-126) scale(1,1)"><path fill="none" stroke="#000000" d="M 248 159 L 381.75537109375 159" stroke-miterlimit="10"/></g><g transform="translate(-238,-126) scale(1,1)"><path fill="none" stroke="#000000" d="M 276.05908203125 159 L 276.05908203125 226" stroke-miterlimit="10"/></g><g transform="translate(-238,-126) scale(1,1)"><path fill="none" stroke="#000000" d="M 372.75537109375 159 L 372.75537109375 226" stroke-miterlimit="10"/></g><g transform="translate(-238,-126) scale(1,1)"><g><path fill="none" stroke="none"/><text fill="#000000" stroke="none" font-family="Arial" font-size="13px" font-style="normal" font-weight="bold" text-decoration="none" x="275.135009765625" y="151.7099609375">PhysicalItem</text></g></g><g transform="translate(-238,-126) scale(1,1)"><g><path fill="none" stroke="none"/><text fill="#000000" stroke="none" font-family="Arial" font-size="13px" font-style="normal" font-weight="normal" text-decoration="none" x="253" y="172.94384765625">PK</text></g></g><g transform="translate(-238,-126) scale(1,1)"><g><path fill="none" stroke="none"/><text fill="#000000" stroke="none" font-family="Arial" font-size="13px" font-style="normal" font-weight="normal" text-decoration="none" x="281.05908203125" y="173.419921875">id</text></g></g><g transform="translate(-238,-126) scale(1,1)"><g><path fill="none" stroke="none"/><text fill="#000000" stroke="none" font-family="Arial" font-size="13px" font-style="normal" font-weight="normal" text-decoration="none" x="377.75537109375" y="164"></text></g></g><g transform="translate(-238,-126) scale(1,1)"><g><path fill="none" stroke="none"/><text fill="#000000" stroke="none" font-family="Arial" font-size="13px" font-style="normal" font-weight="normal" text-decoration="none" x="253" y="170"></text></g></g><g transform="translate(-238,-126) scale(1,1)"><g><path fill="none" stroke="none"/><text fill="#000000" stroke="none" font-family="Arial" font-size="13px" font-style="normal" font-weight="normal" text-decoration="none" x="253" y="187.94384765625">U</text></g></g><g transform="translate(-238,-126) scale(1,1)"><g><path fill="none" stroke="none"/><text fill="#000000" stroke="none" font-family="Arial" font-size="13px" font-style="normal" font-weight="normal" text-decoration="none" x="281.05908203125" y="188.419921875">serial number</text></g></g><g transform="translate(-238,-126) scale(1,1)"><g><path fill="none" stroke="none"/><text fill="#000000" stroke="none" font-family="Arial" font-size="13px" font-style="normal" font-weight="normal" text-decoration="none" x="377.75537109375" y="179"></text></g></g><g transform="translate(-238,-126) scale(1,1)"><g><path fill="none" stroke="none"/><text fill="#000000" stroke="none" font-family="Arial" font-size="13px" font-style="normal" font-weight="normal" text-decoration="none" x="253" y="185"></text></g></g><g transform="translate(-238,-126) scale(1,1)"><g><path fill="none" stroke="none"/><text fill="#000000" stroke="none" font-family="Arial" font-size="13px" font-style="normal" font-weight="normal" text-decoration="none" x="253" y="194"></text></g></g><g transform="translate(-238,-126) scale(1,1)"><g><path fill="none" stroke="none"/><text fill="#000000" stroke="none" font-family="Arial" font-size="13px" font-style="normal" font-weight="normal" text-decoration="none" x="281.05908203125" y="203.419921875">sku</text></g></g><g transform="translate(-238,-126) scale(1,1)"><g><path fill="none" stroke="none"/><text fill="#000000" stroke="none" font-family="Arial" font-size="13px" font-style="normal" font-weight="normal" text-decoration="none" x="377.75537109375" y="194"></text></g></g><g transform="translate(-238,-126) scale(1,1)"><g><path fill="none" stroke="none"/><text fill="#000000" stroke="none" font-family="Arial" font-size="13px" font-style="normal" font-weight="normal" text-decoration="none" x="253" y="200"></text></g></g><g transform="translate(-238,-126) scale(1,1)"><g><path fill="none" stroke="none"/><text fill="#000000" stroke="none" font-family="Arial" font-size="13px" font-style="normal" font-weight="normal" text-decoration="none" x="253" y="217.94384765625">FK</text></g></g><g transform="translate(-238,-126) scale(1,1)"><g><path fill="none" stroke="none"/><text fill="#000000" stroke="none" font-family="Arial" font-size="13px" font-style="normal" font-weight="normal" text-decoration="none" x="281.05908203125" y="218.419921875">warehouse_id</text></g></g><g transform="translate(-238,-126) scale(1,1)"><g><path fill="none" stroke="none"/><text fill="#000000" stroke="none" font-family="Arial" font-size="13px" font-style="normal" font-weight="normal" text-decoration="none" x="377.75537109375" y="209"></text></g></g><g transform="translate(-238,-126) scale(1,1)"><g><path fill="none" stroke="none"/><text fill="#000000" stroke="none" font-family="Arial" font-size="13px" font-style="normal" font-weight="normal" text-decoration="none" x="253" y="215"></text></g></g><g transform="translate(-238,-126) scale(1,1)"><rect fill="#C0C0C0" stroke="none" x="503" y="143" width="102.6708984375" height="75" opacity="0.2"/></g><g transform="translate(-238,-126) scale(1,1)"><rect fill="#ffffff" stroke="none" x="496" y="136" width="102.6708984375" height="75"/></g><g transform="translate(-238,-126) scale(1,1)"><path fill="none" stroke="#000000" d="M 496 136 L 598.6708984375 136 L 598.6708984375 211 L 496 211 L 496 136 Z Z" stroke-miterlimit="10"/></g><g transform="translate(-238,-126) scale(1,1)"><path fill="none" stroke="#000000" d="M 496 159 L 598.6708984375 159" stroke-miterlimit="10"/></g><g transform="translate(-238,-126) scale(1,1)"><path fill="none" stroke="#000000" d="M 524.05908203125 159 L 524.05908203125 211" stroke-miterlimit="10"/></g><g transform="translate(-238,-126) scale(1,1)"><path fill="none" stroke="#000000" d="M 583.919921875 159 L 583.919921875 211" stroke-miterlimit="10"/></g><g transform="translate(-238,-126) scale(1,1)"><g><path fill="none" stroke="none"/><text fill="#000000" stroke="none" font-family="Arial" font-size="13px" font-style="normal" font-weight="bold" text-decoration="none" x="511.817138671875" y="151.471923828125">WareHouse</text></g></g><g transform="translate(-238,-126) scale(1,1)"><g><path fill="none" stroke="none"/><text fill="#000000" stroke="none" font-family="Arial" font-size="13px" font-style="normal" font-weight="normal" text-decoration="none" x="501" y="172.94384765625">PK</text></g></g><g transform="translate(-238,-126) scale(1,1)"><g><path fill="none" stroke="none"/><text fill="#000000" stroke="none" font-family="Arial" font-size="13px" font-style="normal" font-weight="normal" text-decoration="none" x="529.05908203125" y="173.419921875">id</text></g></g><g transform="translate(-238,-126) scale(1,1)"><g><path fill="none" stroke="none"/><text fill="#000000" stroke="none" font-family="Arial" font-size="13px" font-style="normal" font-weight="normal" text-decoration="none" x="588.919921875" y="164"></text></g></g><g transform="translate(-238,-126) scale(1,1)"><g><path fill="none" stroke="none"/><text fill="#000000" stroke="none" font-family="Arial" font-size="13px" font-style="normal" font-weight="normal" text-decoration="none" x="501" y="170"></text></g></g><g transform="translate(-238,-126) scale(1,1)"><g><path fill="none" stroke="none"/><text fill="#000000" stroke="none" font-family="Arial" font-size="13px" font-style="normal" font-weight="normal" text-decoration="none" x="501" y="179"></text></g></g><g transform="translate(-238,-126) scale(1,1)"><g><path fill="none" stroke="none"/><text fill="#000000" stroke="none" font-family="Arial" font-size="13px" font-style="normal" font-weight="normal" text-decoration="none" x="529.05908203125" y="185.9951171875">name</text></g></g><g transform="translate(-238,-126) scale(1,1)"><g><path fill="none" stroke="none"/><text fill="#000000" stroke="none" font-family="Arial" font-size="13px" font-style="normal" font-weight="normal" text-decoration="none" x="588.919921875" y="179"></text></g></g><g transform="translate(-238,-126) scale(1,1)"><g><path fill="none" stroke="none"/><text fill="#000000" stroke="none" font-family="Arial" font-size="13px" font-style="normal" font-weight="normal" text-decoration="none" x="501" y="185"></text></g></g><g transform="translate(-238,-126) scale(1,1)"><g><path fill="none" stroke="none"/><text fill="#000000" stroke="none" font-family="Arial" font-size="13px" font-style="normal" font-weight="normal" text-decoration="none" x="501" y="194"></text></g></g><g transform="translate(-238,-126) scale(1,1)"><g><path fill="none" stroke="none"/><text fill="#000000" stroke="none" font-family="Arial" font-size="13px" font-style="normal" font-weight="normal" text-decoration="none" x="529.05908203125" y="203.419921875">address</text></g></g><g transform="translate(-238,-126) scale(1,1)"><g><path fill="none" stroke="none"/><text fill="#000000" stroke="none" font-family="Arial" font-size="13px" font-style="normal" font-weight="normal" text-decoration="none" x="588.919921875" y="194"></text></g></g><g transform="translate(-238,-126) scale(1,1)"><g><path fill="none" stroke="none"/><text fill="#000000" stroke="none" font-family="Arial" font-size="13px" font-style="normal" font-weight="normal" text-decoration="none" x="501" y="200"></text></g></g><g transform="translate(-238,-126) scale(1,1)"><path fill="none" stroke="#000000" d="M 496 194 L 382 194" stroke-miterlimit="10"/></g><g transform="translate(-238,-126) scale(1,1)"><path fill="none" stroke="#000000" d="M 396 194 L 382 187" stroke-miterlimit="10"/></g><g transform="translate(-238,-126) scale(1,1)"><path fill="none" stroke="#000000" d="M 396 194 L 382 201" stroke-miterlimit="10"/></g><g transform="translate(-238,-126) scale(1,1)"><path fill="#FFFFFF" stroke="none" d="M 397 194 C 397 190.1340064 400.1340064 187 404 187 C 407.8659936 187 411 190.1340064 411 194 C 411 197.8659936 407.8659936 201 404 201 C 400.1340064 201 397 197.8659936 397 194 Z"/></g><g transform="translate(-238,-126) scale(1,1)"><path fill="none" stroke="#000000" d="M 397 194 C 397 190.1340064 400.1340064 187 404 187 C 407.8659936 187 411 190.1340064 411 194 C 411 197.8659936 407.8659936 201 404 201 C 400.1340064 201 397 197.8659936 397 194 Z" stroke-miterlimit="10"/></g><g transform="translate(-238,-126) scale(1,1)"><path fill="none" stroke="#000000" d="M 489 201 L 489 187" stroke-miterlimit="10"/></g><g transform="translate(-238,-126) scale(1,1)"><path fill="none" stroke="#000000" d="M 482 201 L 482 187" stroke-miterlimit="10"/></g><g transform="translate(-238,-126) scale(1,1)"><g><path fill="none" stroke="none"/><text fill="#000000" stroke="none" font-family="Arial" font-size="13px" font-style="normal" font-weight="normal" text-decoration="none" x="469.5" y="208"></text></g></g><g transform="translate(-238,-126) scale(1,1)"><g><path fill="none" stroke="none"/><text fill="#000000" stroke="none" font-family="Arial" font-size="13px" font-style="normal" font-weight="normal" text-decoration="none" x="406.5" y="208"></text></g></g></g></svg>