<svg version="1.1" xmlns="http://www.w3.org/2000/svg" xmlns:xlink="http://www.w3.org/1999/xlink" width="796.3017578125" height="550"><defs/><g><g transform="translate(-46,-70) scale(1,1)"><rect fill="#C0C0C0" stroke="none" x="367" y="87" width="179.287109375" height="135" opacity="0.2"/></g><g transform="translate(-46,-70) scale(1,1)"><rect fill="#ffffff" stroke="none" x="360" y="80" width="179.287109375" height="135"/></g><g transform="translate(-46,-70) scale(1,1)"><path fill="none" stroke="#000000" d="M 360 80 L 539.287109375 80 L 539.287109375 215 L 360 215 L 360 80 Z Z" stroke-miterlimit="10"/></g><g transform="translate(-46,-70) scale(1,1)"><path fill="none" stroke="#000000" d="M 360 103 L 539.287109375 103" stroke-miterlimit="10"/></g><g transform="translate(-46,-70) scale(1,1)"><path fill="none" stroke="#000000" d="M 388.05908203125 103 L 388.05908203125 215" stroke-miterlimit="10"/></g><g transform="translate(-46,-70) scale(1,1)"><path fill="none" stroke="#000000" d="M 530.287109375 103 L 530.287109375 215" stroke-miterlimit="10"/></g><g transform="translate(-46,-70) scale(1,1)"><g><path fill="none" stroke="none"/><text fill="#000000" stroke="none" font-family="Arial" font-size="13px" font-style="normal" font-weight="bold" text-decoration="none" x="389.331298828125" y="95.7099609375">ProductDescription</text></g></g><g transform="translate(-46,-70) scale(1,1)"><g><path fill="none" stroke="none"/><text fill="#000000" stroke="none" font-family="Arial" font-size="13px" font-style="normal" font-weight="normal" text-decoration="none" x="365" y="116.94384765625">PK</text></g></g><g transform="translate(-46,-70) scale(1,1)"><g><path fill="none" stroke="none"/><text fill="#000000" stroke="none" font-family="Arial" font-size="13px" font-style="normal" font-weight="normal" text-decoration="none" x="393.05908203125" y="117.419921875">id</text></g></g><g transform="translate(-46,-70) scale(1,1)"><g><path fill="none" stroke="none"/><text fill="#000000" stroke="none" font-family="Arial" font-size="13px" font-style="normal" font-weight="normal" text-decoration="none" x="535.287109375" y="108"></text></g></g><g transform="translate(-46,-70) scale(1,1)"><g><path fill="none" stroke="none"/><text fill="#000000" stroke="none" font-family="Arial" font-size="13px" font-style="normal" font-weight="normal" text-decoration="none" x="365" y="114"></text></g></g><g transform="translate(-46,-70) scale(1,1)"><g><path fill="none" stroke="none"/><text fill="#000000" stroke="none" font-family="Arial" font-size="13px" font-style="normal" font-weight="normal" text-decoration="none" x="365" y="123"></text></g></g><g transform="translate(-46,-70) scale(1,1)"><g><path fill="none" stroke="none"/><text fill="#000000" stroke="none" font-family="Arial" font-size="13px" font-style="normal" font-weight="normal" text-decoration="none" x="393.05908203125" y="129.9951171875">name</text></g></g><g transform="translate(-46,-70) scale(1,1)"><g><path fill="none" stroke="none"/><text fill="#000000" stroke="none" font-family="Arial" font-size="13px" font-style="normal" font-weight="normal" text-decoration="none" x="535.287109375" y="123"></text></g></g><g transform="translate(-46,-70) scale(1,1)"><g><path fill="none" stroke="none"/><text fill="#000000" stroke="none" font-family="Arial" font-size="13px" font-style="normal" font-weight="normal" text-decoration="none" x="365" y="129"></text></g></g><g transform="translate(-46,-70) scale(1,1)"><g><path fill="none" stroke="none"/><text fill="#000000" stroke="none" font-family="Arial" font-size="13px" font-style="normal" font-weight="normal" text-decoration="none" x="365" y="138"></text></g></g><g transform="translate(-46,-70) scale(1,1)"><g><path fill="none" stroke="none"/><text fill="#000000" stroke="none" font-family="Arial" font-size="13px" font-style="normal" font-weight="normal" text-decoration="none" x="393.05908203125" y="147.419921875">description</text></g></g><g transform="translate(-46,-70) scale(1,1)"><g><path fill="none" stroke="none"/><text fill="#000000" stroke="none" font-family="Arial" font-size="13px" font-style="normal" font-weight="normal" text-decoration="none" x="535.287109375" y="138"></text></g></g><g transform="translate(-46,-70) scale(1,1)"><g><path fill="none" stroke="none"/><text fill="#000000" stroke="none" font-family="Arial" font-size="13px" font-style="normal" font-weight="normal" text-decoration="none" x="365" y="144"></text></g></g><g transform="translate(-46,-70) scale(1,1)"><g><path fill="none" stroke="none"/><text fill="#000000" stroke="none" font-family="Arial" font-size="13px" font-style="normal" font-weight="normal" text-decoration="none" x="365" y="153"></text></g></g><g transform="translate(-46,-70) scale(1,1)"><g><path fill="none" stroke="none"/><text fill="#000000" stroke="none" font-family="Arial" font-size="13px" font-style="normal" font-weight="normal" text-decoration="none" x="393.05908203125" y="162.419921875">price</text></g></g><g transform="translate(-46,-70) scale(1,1)"><g><path fill="none" stroke="none"/><text fill="#000000" stroke="none" font-family="Arial" font-size="13px" font-style="normal" font-weight="normal" text-decoration="none" x="535.287109375" y="153"></text></g></g><g transform="translate(-46,-70) scale(1,1)"><g><path fill="none" stroke="none"/><text fill="#000000" stroke="none" font-family="Arial" font-size="13px" font-style="normal" font-weight="normal" text-decoration="none" x="365" y="159"></text></g></g><g transform="translate(-46,-70) scale(1,1)"><g><path fill="none" stroke="none"/><text fill="#000000" stroke="none" font-family="Arial" font-size="13px" font-style="normal" font-weight="normal" text-decoration="none" x="365" y="168"></text></g></g><g transform="translate(-46,-70) scale(1,1)"><g><path fill="none" stroke="none"/><text fill="#000000" stroke="none" font-family="Arial" font-size="13px" font-style="normal" font-weight="normal" text-decoration="none" x="393.05908203125" y="177.419921875">sku</text></g></g><g transform="translate(-46,-70) scale(1,1)"><g><path fill="none" stroke="none"/><text fill="#000000" stroke="none" font-family="Arial" font-size="13px" font-style="normal" font-weight="normal" text-decoration="none" x="535.287109375" y="168"></text></g></g><g transform="translate(-46,-70) scale(1,1)"><g><path fill="none" stroke="none"/><text fill="#000000" stroke="none" font-family="Arial" font-size="13px" font-style="normal" font-weight="normal" text-decoration="none" x="365" y="174"></text></g></g><g transform="translate(-46,-70) scale(1,1)"><g><path fill="none" stroke="none"/><text fill="#000000" stroke="none" font-family="Arial" font-size="13px" font-style="normal" font-weight="normal" text-decoration="none" x="365" y="183"></text></g></g><g transform="translate(-46,-70) scale(1,1)"><g><path fill="none" stroke="none"/><text fill="#000000" stroke="none" font-family="Arial" font-size="13px" font-style="normal" font-weight="normal" text-decoration="none" x="393.05908203125" y="192.419921875">available_to_promise</text></g></g><g transform="translate(-46,-70) scale(1,1)"><g><path fill="none" stroke="none"/><text fill="#000000" stroke="none" font-family="Arial" font-size="13px" font-style="normal" font-weight="normal" text-decoration="none" x="535.287109375" y="183"></text></g></g><g transform="translate(-46,-70) scale(1,1)"><g><path fill="none" stroke="none"/><text fill="#000000" stroke="none" font-family="Arial" font-size="13px" font-style="normal" font-weight="normal" text-decoration="none" x="365" y="189"></text></g></g><g transform="translate(-46,-70) scale(1,1)"><g><path fill="none" stroke="none"/><text fill="#000000" stroke="none" font-family="Arial" font-size="13px" font-style="normal" font-weight="normal" text-decoration="none" x="365" y="206.94384765625">FK</text></g></g><g transform="translate(-46,-70) scale(1,1)"><g><path fill="none" stroke="none"/><text fill="#000000" stroke="none" font-family="Arial" font-size="13px" font-style="normal" font-weight="normal" text-decoration="none" x="393.05908203125" y="207.419921875">product_catalog_id</text></g></g><g transform="translate(-46,-70) scale(1,1)"><g><path fill="none" stroke="none"/><text fill="#000000" stroke="none" font-family="Arial" font-size="13px" font-style="normal" font-weight="normal" text-decoration="none" x="535.287109375" y="198"></text></g></g><g transform="translate(-46,-70) scale(1,1)"><g><path fill="none" stroke="none"/><text fill="#000000" stroke="none" font-family="Arial" font-size="13px" font-style="normal" font-weight="normal" text-decoration="none" x="365" y="204"></text></g></g><g transform="translate(-46,-70) scale(1,1)"><rect fill="#C0C0C0" stroke="none" x="63" y="103" width="179.287109375" height="90" opacity="0.2"/></g><g transform="translate(-46,-70) scale(1,1)"><rect fill="#ffffff" stroke="none" x="56" y="96" width="179.287109375" height="90"/></g><g transform="translate(-46,-70) scale(1,1)"><path fill="none" stroke="#000000" d="M 56 96 L 235.287109375 96 L 235.287109375 186 L 56 186 L 56 96 Z Z" stroke-miterlimit="10"/></g><g transform="translate(-46,-70) scale(1,1)"><path fill="none" stroke="#000000" d="M 56 119 L 235.287109375 119" stroke-miterlimit="10"/></g><g transform="translate(-46,-70) scale(1,1)"><path fill="none" stroke="#000000" d="M 84.05908203125 119 L 84.05908203125 186" stroke-miterlimit="10"/></g><g transform="translate(-46,-70) scale(1,1)"><path fill="none" stroke="#000000" d="M 164.12451171875 119 L 164.12451171875 186" stroke-miterlimit="10"/></g><g transform="translate(-46,-70) scale(1,1)"><g><path fill="none" stroke="none"/><text fill="#000000" stroke="none" font-family="Arial" font-size="13px" font-style="normal" font-weight="bold" text-decoration="none" x="97.252197265625" y="111.7099609375">ProductCatalog</text></g></g><g transform="translate(-46,-70) scale(1,1)"><g><path fill="none" stroke="none"/><text fill="#000000" stroke="none" font-family="Arial" font-size="13px" font-style="normal" font-weight="normal" text-decoration="none" x="61" y="132.94384765625">PK</text></g></g><g transform="translate(-46,-70) scale(1,1)"><g><path fill="none" stroke="none"/><text fill="#000000" stroke="none" font-family="Arial" font-size="13px" font-style="normal" font-weight="normal" text-decoration="none" x="89.05908203125" y="133.419921875">id</text></g></g><g transform="translate(-46,-70) scale(1,1)"><g><path fill="none" stroke="none"/><text fill="#000000" stroke="none" font-family="Arial" font-size="13px" font-style="normal" font-weight="normal" text-decoration="none" x="169.12451171875" y="124"></text></g></g><g transform="translate(-46,-70) scale(1,1)"><g><path fill="none" stroke="none"/><text fill="#000000" stroke="none" font-family="Arial" font-size="13px" font-style="normal" font-weight="normal" text-decoration="none" x="61" y="130"></text></g></g><g transform="translate(-46,-70) scale(1,1)"><g><path fill="none" stroke="none"/><text fill="#000000" stroke="none" font-family="Arial" font-size="13px" font-style="normal" font-weight="normal" text-decoration="none" x="61" y="139"></text></g></g><g transform="translate(-46,-70) scale(1,1)"><g><path fill="none" stroke="none"/><text fill="#000000" stroke="none" font-family="Arial" font-size="13px" font-style="normal" font-weight="normal" text-decoration="none" x="89.05908203125" y="145.9951171875">name</text></g></g><g transform="translate(-46,-70) scale(1,1)"><g><path fill="none" stroke="none"/><text fill="#000000" stroke="none" font-family="Arial" font-size="13px" font-style="normal" font-weight="normal" text-decoration="none" x="169.12451171875" y="139"></text></g></g><g transform="translate(-46,-70) scale(1,1)"><g><path fill="none" stroke="none"/><text fill="#000000" stroke="none" font-family="Arial" font-size="13px" font-style="normal" font-weight="normal" text-decoration="none" x="61" y="145"></text></g></g><g transform="translate(-46,-70) scale(1,1)"><g><path fill="none" stroke="none"/><text fill="#000000" stroke="none" font-family="Arial" font-size="13px" font-style="normal" font-weight="normal" text-decoration="none" x="61" y="154"></text></g></g><g transform="translate(-46,-70) scale(1,1)"><g><path fill="none" stroke="none"/><text fill="#000000" stroke="none" font-family="Arial" font-size="13px" font-style="normal" font-weight="normal" text-decoration="none" x="89.05908203125" y="163.419921875">description</text></g></g><g transform="translate(-46,-70) scale(1,1)"><g><path fill="none" stroke="none"/><text fill="#000000" stroke="none" font-family="Arial" font-size="13px" font-style="normal" font-weight="normal" text-decoration="none" x="169.12451171875" y="154"></text></g></g><g transform="translate(-46,-70) scale(1,1)"><g><path fill="none" stroke="none"/><text fill="#000000" stroke="none" font-family="Arial" font-size="13px" font-style="normal" font-weight="normal" text-decoration="none" x="61" y="160"></text></g></g><g transform="translate(-46,-70) scale(1,1)"><path fill="none" stroke="#000000" d="M 235 140 L 360 140" stroke-miterlimit="10"/></g><g transform="translate(-46,-70) scale(1,1)"><path fill="none" stroke="#000000" d="M 346 140 L 360 147" stroke-miterlimit="10"/></g><g transform="translate(-46,-70) scale(1,1)"><path fill="none" stroke="#000000" d="M 346 140 L 360 133" stroke-miterlimit="10"/></g><g transform="translate(-46,-70) scale(1,1)"><path fill="#FFFFFF" stroke="none" d="M 331 140 C 331 136.1340064 334.1340064 133 338 133 C 341.8659936 133 345 136.1340064 345 140 C 345 143.8659936 341.8659936 147 338 147 C 334.1340064 147 331 143.8659936 331 140 Z"/></g><g transform="translate(-46,-70) scale(1,1)"><path fill="none" stroke="#000000" d="M 331 140 C 331 136.1340064 334.1340064 133 338 133 C 341.8659936 133 345 136.1340064 345 140 C 345 143.8659936 341.8659936 147 338 147 C 334.1340064 147 331 143.8659936 331 140 Z" stroke-miterlimit="10"/></g><g transform="translate(-46,-70) scale(1,1)"><path fill="none" stroke="#000000" d="M 242 133 L 242 147" stroke-miterlimit="10"/></g><g transform="translate(-46,-70) scale(1,1)"><path fill="none" stroke="#000000" d="M 249 133 L 249 147" stroke-miterlimit="10"/></g><g transform="translate(-46,-70) scale(1,1)"><g><path fill="none" stroke="none"/><text fill="#000000" stroke="none" font-family="Arial" font-size="13px" font-style="normal" font-weight="normal" text-decoration="none" x="259.5" y="125"></text></g></g><g transform="translate(-46,-70) scale(1,1)"><g><path fill="none" stroke="none"/><text fill="#000000" stroke="none" font-family="Arial" font-size="13px" font-style="normal" font-weight="normal" text-decoration="none" x="333.5" y="125"></text></g></g><g transform="translate(-46,-70) scale(1,1)"><rect fill="#C0C0C0" stroke="none" x="375" y="343" width="140.2490234375" height="120" opacity="0.2"/></g><g transform="translate(-46,-70) scale(1,1)"><rect fill="#ffffff" stroke="none" x="368" y="336" width="140.2490234375" height="120"/></g><g transform="translate(-46,-70) scale(1,1)"><path fill="none" stroke="#000000" d="M 368 336 L 508.2490234375 336 L 508.2490234375 456 L 368 456 L 368 336 Z Z" stroke-miterlimit="10"/></g><g transform="translate(-46,-70) scale(1,1)"><path fill="none" stroke="#000000" d="M 368 359 L 508.2490234375 359" stroke-miterlimit="10"/></g><g transform="translate(-46,-70) scale(1,1)"><path fill="none" stroke="#000000" d="M 396.05908203125 359 L 396.05908203125 456" stroke-miterlimit="10"/></g><g transform="translate(-46,-70) scale(1,1)"><path fill="none" stroke="#000000" d="M 499.2490234375 359 L 499.2490234375 456" stroke-miterlimit="10"/></g><g transform="translate(-46,-70) scale(1,1)"><g><path fill="none" stroke="none"/><text fill="#000000" stroke="none" font-family="Arial" font-size="13px" font-style="normal" font-weight="bold" text-decoration="none" x="373.60693359375" y="351.7099609375">EAVProductAttribute</text></g></g><g transform="translate(-46,-70) scale(1,1)"><g><path fill="none" stroke="none"/><text fill="#000000" stroke="none" font-family="Arial" font-size="13px" font-style="normal" font-weight="normal" text-decoration="none" x="373" y="372.94384765625">PK</text></g></g><g transform="translate(-46,-70) scale(1,1)"><g><path fill="none" stroke="none"/><text fill="#000000" stroke="none" font-family="Arial" font-size="13px" font-style="normal" font-weight="normal" text-decoration="none" x="401.05908203125" y="373.419921875">id</text></g></g><g transform="translate(-46,-70) scale(1,1)"><g><path fill="none" stroke="none"/><text fill="#000000" stroke="none" font-family="Arial" font-size="13px" font-style="normal" font-weight="normal" text-decoration="none" x="504.2490234375" y="364"></text></g></g><g transform="translate(-46,-70) scale(1,1)"><g><path fill="none" stroke="none"/><text fill="#000000" stroke="none" font-family="Arial" font-size="13px" font-style="normal" font-weight="normal" text-decoration="none" x="373" y="370"></text></g></g><g transform="translate(-46,-70) scale(1,1)"><g><path fill="none" stroke="none"/><text fill="#000000" stroke="none" font-family="Arial" font-size="13px" font-style="normal" font-weight="normal" text-decoration="none" x="373" y="379"></text></g></g><g transform="translate(-46,-70) scale(1,1)"><g><path fill="none" stroke="none"/><text fill="#000000" stroke="none" font-family="Arial" font-size="13px" font-style="normal" font-weight="normal" text-decoration="none" x="401.05908203125" y="388.419921875">attribute_name</text></g></g><g transform="translate(-46,-70) scale(1,1)"><g><path fill="none" stroke="none"/><text fill="#000000" stroke="none" font-family="Arial" font-size="13px" font-style="normal" font-weight="normal" text-decoration="none" x="504.2490234375" y="379"></text></g></g><g transform="translate(-46,-70) scale(1,1)"><g><path fill="none" stroke="none"/><text fill="#000000" stroke="none" font-family="Arial" font-size="13px" font-style="normal" font-weight="normal" text-decoration="none" x="373" y="385"></text></g></g><g transform="translate(-46,-70) scale(1,1)"><g><path fill="none" stroke="none"/><text fill="#000000" stroke="none" font-family="Arial" font-size="13px" font-style="normal" font-weight="normal" text-decoration="none" x="373" y="394"></text></g></g><g transform="translate(-46,-70) scale(1,1)"><g><path fill="none" stroke="none"/><text fill="#000000" stroke="none" font-family="Arial" font-size="13px" font-style="normal" font-weight="normal" text-decoration="none" x="401.05908203125" y="403.419921875">attribute_code</text></g></g><g transform="translate(-46,-70) scale(1,1)"><g><path fill="none" stroke="none"/><text fill="#000000" stroke="none" font-family="Arial" font-size="13px" font-style="normal" font-weight="normal" text-decoration="none" x="504.2490234375" y="394"></text></g></g><g transform="translate(-46,-70) scale(1,1)"><g><path fill="none" stroke="none"/><text fill="#000000" stroke="none" font-family="Arial" font-size="13px" font-style="normal" font-weight="normal" text-decoration="none" x="373" y="400"></text></g></g><g transform="translate(-46,-70) scale(1,1)"><g><path fill="none" stroke="none"/><text fill="#000000" stroke="none" font-family="Arial" font-size="13px" font-style="normal" font-weight="normal" text-decoration="none" x="373" y="409"></text></g></g><g transform="translate(-46,-70) scale(1,1)"><g><path fill="none" stroke="none"/><text fill="#000000" stroke="none" font-family="Arial" font-size="13px" font-style="normal" font-weight="normal" text-decoration="none" x="401.05908203125" y="418.419921875">description</text></g></g><g transform="translate(-46,-70) scale(1,1)"><g><path fill="none" stroke="none"/><text fill="#000000" stroke="none" font-family="Arial" font-size="13px" font-style="normal" font-weight="normal" text-decoration="none" x="504.2490234375" y="409"></text></g></g><g transform="translate(-46,-70) scale(1,1)"><g><path fill="none" stroke="none"/><text fill="#000000" stroke="none" font-family="Arial" font-size="13px" font-style="normal" font-weight="normal" text-decoration="none" x="373" y="415"></text></g></g><g transform="translate(-46,-70) scale(1,1)"><g><path fill="none" stroke="none"/><text fill="#000000" stroke="none" font-family="Arial" font-size="13px" font-style="normal" font-weight="normal" text-decoration="none" x="373" y="424"></text></g></g><g transform="translate(-46,-70) scale(1,1)"><g><path fill="none" stroke="none"/><text fill="#000000" stroke="none" font-family="Arial" font-size="13px" font-style="normal" font-weight="normal" text-decoration="none" x="401.05908203125" y="433.419921875">data_type</text></g></g><g transform="translate(-46,-70) scale(1,1)"><g><path fill="none" stroke="none"/><text fill="#000000" stroke="none" font-family="Arial" font-size="13px" font-style="normal" font-weight="normal" text-decoration="none" x="504.2490234375" y="424"></text></g></g><g transform="translate(-46,-70) scale(1,1)"><g><path fill="none" stroke="none"/><text fill="#000000" stroke="none" font-family="Arial" font-size="13px" font-style="normal" font-weight="normal" text-decoration="none" x="373" y="430"></text></g></g><g transform="translate(-46,-70) scale(1,1)"><g><path fill="none" stroke="none"/><text fill="#000000" stroke="none" font-family="Arial" font-size="13px" font-style="normal" font-weight="normal" text-decoration="none" x="373" y="439"></text></g></g><g transform="translate(-46,-70) scale(1,1)"><g><path fill="none" stroke="none"/><text fill="#000000" stroke="none" font-family="Arial" font-size="13px" font-style="normal" font-weight="normal" text-decoration="none" x="401.05908203125" y="448.419921875">unit</text></g></g><g transform="translate(-46,-70) scale(1,1)"><g><path fill="none" stroke="none"/><text fill="#000000" stroke="none" font-family="Arial" font-size="13px" font-style="normal" font-weight="normal" text-decoration="none" x="504.2490234375" y="439"></text></g></g><g transform="translate(-46,-70) scale(1,1)"><g><path fill="none" stroke="none"/><text fill="#000000" stroke="none" font-family="Arial" font-size="13px" font-style="normal" font-weight="normal" text-decoration="none" x="373" y="445"></text></g></g><g transform="translate(-46,-70) scale(1,1)"><rect fill="#C0C0C0" stroke="none" x="655" y="343" width="184.3017578125" height="75" opacity="0.2"/></g><g transform="translate(-46,-70) scale(1,1)"><rect fill="#ffffff" stroke="none" x="648" y="336" width="184.3017578125" height="75"/></g><g transform="translate(-46,-70) scale(1,1)"><path fill="none" stroke="#000000" d="M 648 336 L 832.3017578125 336 L 832.3017578125 411 L 648 411 L 648 336 Z Z" stroke-miterlimit="10"/></g><g transform="translate(-46,-70) scale(1,1)"><path fill="none" stroke="#000000" d="M 648 359 L 832.3017578125 359" stroke-miterlimit="10"/></g><g transform="translate(-46,-70) scale(1,1)"><path fill="none" stroke="#000000" d="M 676.05908203125 359 L 676.05908203125 411" stroke-miterlimit="10"/></g><g transform="translate(-46,-70) scale(1,1)"><path fill="none" stroke="#000000" d="M 823.3017578125 359 L 823.3017578125 411" stroke-miterlimit="10"/></g><g transform="translate(-46,-70) scale(1,1)"><g><path fill="none" stroke="none"/><text fill="#000000" stroke="none" font-family="Arial" font-size="13px" font-style="normal" font-weight="bold" text-decoration="none" x="681.1748046875" y="351.7099609375">EAVAttributeGroup</text></g></g><g transform="translate(-46,-70) scale(1,1)"><g><path fill="none" stroke="none"/><text fill="#000000" stroke="none" font-family="Arial" font-size="13px" font-style="normal" font-weight="normal" text-decoration="none" x="653" y="372.94384765625">PK</text></g></g><g transform="translate(-46,-70) scale(1,1)"><g><path fill="none" stroke="none"/><text fill="#000000" stroke="none" font-family="Arial" font-size="13px" font-style="normal" font-weight="normal" text-decoration="none" x="681.05908203125" y="373.419921875">id</text></g></g><g transform="translate(-46,-70) scale(1,1)"><g><path fill="none" stroke="none"/><text fill="#000000" stroke="none" font-family="Arial" font-size="13px" font-style="normal" font-weight="normal" text-decoration="none" x="828.3017578125" y="364"></text></g></g><g transform="translate(-46,-70) scale(1,1)"><g><path fill="none" stroke="none"/><text fill="#000000" stroke="none" font-family="Arial" font-size="13px" font-style="normal" font-weight="normal" text-decoration="none" x="653" y="370"></text></g></g><g transform="translate(-46,-70) scale(1,1)"><g><path fill="none" stroke="none"/><text fill="#000000" stroke="none" font-family="Arial" font-size="13px" font-style="normal" font-weight="normal" text-decoration="none" x="653" y="379"></text></g></g><g transform="translate(-46,-70) scale(1,1)"><g><path fill="none" stroke="none"/><text fill="#000000" stroke="none" font-family="Arial" font-size="13px" font-style="normal" font-weight="normal" text-decoration="none" x="681.05908203125" y="388.419921875">attribute_group_name</text></g></g><g transform="translate(-46,-70) scale(1,1)"><g><path fill="none" stroke="none"/><text fill="#000000" stroke="none" font-family="Arial" font-size="13px" font-style="normal" font-weight="normal" text-decoration="none" x="828.3017578125" y="379"></text></g></g><g transform="translate(-46,-70) scale(1,1)"><g><path fill="none" stroke="none"/><text fill="#000000" stroke="none" font-family="Arial" font-size="13px" font-style="normal" font-weight="normal" text-decoration="none" x="653" y="385"></text></g></g><g transform="translate(-46,-70) scale(1,1)"><g><path fill="none" stroke="none"/><text fill="#000000" stroke="none" font-family="Arial" font-size="13px" font-style="normal" font-weight="normal" text-decoration="none" x="653" y="394"></text></g></g><g transform="translate(-46,-70) scale(1,1)"><g><path fill="none" stroke="none"/><text fill="#000000" stroke="none" font-family="Arial" font-size="13px" font-style="normal" font-weight="normal" text-decoration="none" x="681.05908203125" y="403.419921875">attribute_group_code</text></g></g><g transform="translate(-46,-70) scale(1,1)"><g><path fill="none" stroke="none"/><text fill="#000000" stroke="none" font-family="Arial" font-size="13px" font-style="normal" font-weight="normal" text-decoration="none" x="828.3017578125" y="394"></text></g></g><g transform="translate(-46,-70) scale(1,1)"><g><path fill="none" stroke="none"/><text fill="#000000" stroke="none" font-family="Arial" font-size="13px" font-style="normal" font-weight="normal" text-decoration="none" x="653" y="400"></text></g></g><g transform="translate(-46,-70) scale(1,1)"><rect fill="#C0C0C0" stroke="none" x="543" y="527" width="174.16455078125" height="90" opacity="0.2"/></g><g transform="translate(-46,-70) scale(1,1)"><rect fill="#ffffff" stroke="none" x="536" y="520" width="174.16455078125" height="90"/></g><g transform="translate(-46,-70) scale(1,1)"><path fill="none" stroke="#000000" d="M 536 520 L 710.16455078125 520 L 710.16455078125 610 L 536 610 L 536 520 Z Z" stroke-miterlimit="10"/></g><g transform="translate(-46,-70) scale(1,1)"><path fill="none" stroke="#000000" d="M 536 543 L 710.16455078125 543" stroke-miterlimit="10"/></g><g transform="translate(-46,-70) scale(1,1)"><path fill="none" stroke="#000000" d="M 563.3291015625 543 L 563.3291015625 610" stroke-miterlimit="10"/></g><g transform="translate(-46,-70) scale(1,1)"><path fill="none" stroke="#000000" d="M 688.16455078125 543 L 688.16455078125 610" stroke-miterlimit="10"/></g><g transform="translate(-46,-70) scale(1,1)"><g><path fill="none" stroke="none"/><text fill="#000000" stroke="none" font-family="Arial" font-size="13px" font-style="normal" font-weight="bold" text-decoration="none" x="547.732421875" y="535.7099609375">EAVPivotGroupAttribute</text></g></g><g transform="translate(-46,-70) scale(1,1)"><g><path fill="none" stroke="none"/><text fill="#000000" stroke="none" font-family="Arial" font-size="13px" font-style="normal" font-weight="normal" text-decoration="none" x="541" y="556.94384765625">FK</text></g></g><g transform="translate(-46,-70) scale(1,1)"><g><path fill="none" stroke="none"/><text fill="#000000" stroke="none" font-family="Arial" font-size="13px" font-style="normal" font-weight="normal" text-decoration="none" x="568.3291015625" y="557.419921875">attribute_group_id</text></g></g><g transform="translate(-46,-70) scale(1,1)"><g><path fill="none" stroke="none"/><text fill="#000000" stroke="none" font-family="Arial" font-size="13px" font-style="normal" font-weight="normal" text-decoration="none" x="693.16455078125" y="548"></text></g></g><g transform="translate(-46,-70) scale(1,1)"><g><path fill="none" stroke="none"/><text fill="#000000" stroke="none" font-family="Arial" font-size="13px" font-style="normal" font-weight="normal" text-decoration="none" x="541" y="554"></text></g></g><g transform="translate(-46,-70) scale(1,1)"><g><path fill="none" stroke="none"/><text fill="#000000" stroke="none" font-family="Arial" font-size="13px" font-style="normal" font-weight="normal" text-decoration="none" x="541" y="571.94384765625">FK</text></g></g><g transform="translate(-46,-70) scale(1,1)"><g><path fill="none" stroke="none"/><text fill="#000000" stroke="none" font-family="Arial" font-size="13px" font-style="normal" font-weight="normal" text-decoration="none" x="568.3291015625" y="572.419921875">attribute_id</text></g></g><g transform="translate(-46,-70) scale(1,1)"><g><path fill="none" stroke="none"/><text fill="#000000" stroke="none" font-family="Arial" font-size="13px" font-style="normal" font-weight="normal" text-decoration="none" x="693.16455078125" y="563"></text></g></g><g transform="translate(-46,-70) scale(1,1)"><g><path fill="none" stroke="none"/><text fill="#000000" stroke="none" font-family="Arial" font-size="13px" font-style="normal" font-weight="normal" text-decoration="none" x="541" y="569"></text></g></g><g transform="translate(-46,-70) scale(1,1)"><g><path fill="none" stroke="none"/><text fill="#000000" stroke="none" font-family="Arial" font-size="13px" font-style="normal" font-weight="normal" text-decoration="none" x="541" y="578"></text></g></g><g transform="translate(-46,-70) scale(1,1)"><g><path fill="none" stroke="none"/><text fill="#000000" stroke="none" font-family="Arial" font-size="13px" font-style="normal" font-weight="normal" text-decoration="none" x="568.3291015625" y="587.419921875">is_visible</text></g></g><g transform="translate(-46,-70) scale(1,1)"><g><path fill="none" stroke="none"/><text fill="#000000" stroke="none" font-family="Arial" font-size="13px" font-style="normal" font-weight="normal" text-decoration="none" x="693.16455078125" y="578"></text></g></g><g transform="translate(-46,-70) scale(1,1)"><g><path fill="none" stroke="none"/><text fill="#000000" stroke="none" font-family="Arial" font-size="13px" font-style="normal" font-weight="normal" text-decoration="none" x="541" y="584"></text></g></g><g transform="translate(-46,-70) scale(1,1)"><g><path fill="none" stroke="none"/><text fill="#000000" stroke="none" font-family="Arial" font-size="13px" font-style="normal" font-weight="normal" text-decoration="none" x="541" y="593"></text></g></g><g transform="translate(-46,-70) scale(1,1)"><g><path fill="none" stroke="none"/><text fill="#000000" stroke="none" font-family="Arial" font-size="13px" font-style="normal" font-weight="normal" text-decoration="none" x="568.3291015625" y="602.419921875">sort_order</text></g></g><g transform="translate(-46,-70) scale(1,1)"><g><path fill="none" stroke="none"/><text fill="#000000" stroke="none" font-family="Arial" font-size="13px" font-style="normal" font-weight="normal" text-decoration="none" x="693.16455078125" y="593"></text></g></g><g transform="translate(-46,-70) scale(1,1)"><g><path fill="none" stroke="none"/><text fill="#000000" stroke="none" font-family="Arial" font-size="13px" font-style="normal" font-weight="normal" text-decoration="none" x="541" y="599"></text></g></g><g transform="translate(-46,-70) scale(1,1)"><rect fill="#C0C0C0" stroke="none" x="663" y="103" width="161.89453125" height="105" opacity="0.2"/></g><g transform="translate(-46,-70) scale(1,1)"><rect fill="#ffffff" stroke="none" x="656" y="96" width="161.89453125" height="105"/></g><g transform="translate(-46,-70) scale(1,1)"><path fill="none" stroke="#000000" d="M 656 96 L 817.89453125 96 L 817.89453125 201 L 656 201 L 656 96 Z Z" stroke-miterlimit="10"/></g><g transform="translate(-46,-70) scale(1,1)"><path fill="none" stroke="#000000" d="M 656 119 L 817.89453125 119" stroke-miterlimit="10"/></g><g transform="translate(-46,-70) scale(1,1)"><path fill="none" stroke="#000000" d="M 684.05908203125 119 L 684.05908203125 201" stroke-miterlimit="10"/></g><g transform="translate(-46,-70) scale(1,1)"><path fill="none" stroke="#000000" d="M 808.89453125 119 L 808.89453125 201" stroke-miterlimit="10"/></g><g transform="translate(-46,-70) scale(1,1)"><g><path fill="none" stroke="none"/><text fill="#000000" stroke="none" font-family="Arial" font-size="13px" font-style="normal" font-weight="bold" text-decoration="none" x="674.584716796875" y="111.7099609375">EAVProductValueInt</text></g></g><g transform="translate(-46,-70) scale(1,1)"><g><path fill="none" stroke="none"/><text fill="#000000" stroke="none" font-family="Arial" font-size="13px" font-style="normal" font-weight="normal" text-decoration="none" x="661" y="132.94384765625">PK</text></g></g><g transform="translate(-46,-70) scale(1,1)"><g><path fill="none" stroke="none"/><text fill="#000000" stroke="none" font-family="Arial" font-size="13px" font-style="normal" font-weight="normal" text-decoration="none" x="689.05908203125" y="133.419921875">id</text></g></g><g transform="translate(-46,-70) scale(1,1)"><g><path fill="none" stroke="none"/><text fill="#000000" stroke="none" font-family="Arial" font-size="13px" font-style="normal" font-weight="normal" text-decoration="none" x="813.89453125" y="124"></text></g></g><g transform="translate(-46,-70) scale(1,1)"><g><path fill="none" stroke="none"/><text fill="#000000" stroke="none" font-family="Arial" font-size="13px" font-style="normal" font-weight="normal" text-decoration="none" x="661" y="130"></text></g></g><g transform="translate(-46,-70) scale(1,1)"><g><path fill="none" stroke="none"/><text fill="#000000" stroke="none" font-family="Arial" font-size="13px" font-style="normal" font-weight="normal" text-decoration="none" x="661" y="147.94384765625">FK</text></g></g><g transform="translate(-46,-70) scale(1,1)"><g><path fill="none" stroke="none"/><text fill="#000000" stroke="none" font-family="Arial" font-size="13px" font-style="normal" font-weight="normal" text-decoration="none" x="689.05908203125" y="148.419921875">entity_id</text></g></g><g transform="translate(-46,-70) scale(1,1)"><g><path fill="none" stroke="none"/><text fill="#000000" stroke="none" font-family="Arial" font-size="13px" font-style="normal" font-weight="normal" text-decoration="none" x="813.89453125" y="139"></text></g></g><g transform="translate(-46,-70) scale(1,1)"><g><path fill="none" stroke="none"/><text fill="#000000" stroke="none" font-family="Arial" font-size="13px" font-style="normal" font-weight="normal" text-decoration="none" x="661" y="145"></text></g></g><g transform="translate(-46,-70) scale(1,1)"><g><path fill="none" stroke="none"/><text fill="#000000" stroke="none" font-family="Arial" font-size="13px" font-style="normal" font-weight="normal" text-decoration="none" x="661" y="162.94384765625">FK</text></g></g><g transform="translate(-46,-70) scale(1,1)"><g><path fill="none" stroke="none"/><text fill="#000000" stroke="none" font-family="Arial" font-size="13px" font-style="normal" font-weight="normal" text-decoration="none" x="689.05908203125" y="163.419921875">attribute_group_id</text></g></g><g transform="translate(-46,-70) scale(1,1)"><g><path fill="none" stroke="none"/><text fill="#000000" stroke="none" font-family="Arial" font-size="13px" font-style="normal" font-weight="normal" text-decoration="none" x="813.89453125" y="154"></text></g></g><g transform="translate(-46,-70) scale(1,1)"><g><path fill="none" stroke="none"/><text fill="#000000" stroke="none" font-family="Arial" font-size="13px" font-style="normal" font-weight="normal" text-decoration="none" x="661" y="160"></text></g></g><g transform="translate(-46,-70) scale(1,1)"><g><path fill="none" stroke="none"/><text fill="#000000" stroke="none" font-family="Arial" font-size="13px" font-style="normal" font-weight="normal" text-decoration="none" x="661" y="177.94384765625">FK</text></g></g><g transform="translate(-46,-70) scale(1,1)"><g><path fill="none" stroke="none"/><text fill="#000000" stroke="none" font-family="Arial" font-size="13px" font-style="normal" font-weight="normal" text-decoration="none" x="689.05908203125" y="178.419921875">attribute_id</text></g></g><g transform="translate(-46,-70) scale(1,1)"><g><path fill="none" stroke="none"/><text fill="#000000" stroke="none" font-family="Arial" font-size="13px" font-style="normal" font-weight="normal" text-decoration="none" x="813.89453125" y="169"></text></g></g><g transform="translate(-46,-70) scale(1,1)"><g><path fill="none" stroke="none"/><text fill="#000000" stroke="none" font-family="Arial" font-size="13px" font-style="normal" font-weight="normal" text-decoration="none" x="661" y="175"></text></g></g><g transform="translate(-46,-70) scale(1,1)"><g><path fill="none" stroke="none"/><text fill="#000000" stroke="none" font-family="Arial" font-size="13px" font-style="normal" font-weight="normal" text-decoration="none" x="661" y="184"></text></g></g><g transform="translate(-46,-70) scale(1,1)"><g><path fill="none" stroke="none"/><text fill="#000000" stroke="none" font-family="Arial" font-size="13px" font-style="normal" font-weight="normal" text-decoration="none" x="689.05908203125" y="193.419921875">attribute_value</text></g></g><g transform="translate(-46,-70) scale(1,1)"><g><path fill="none" stroke="none"/><text fill="#000000" stroke="none" font-family="Arial" font-size="13px" font-style="normal" font-weight="normal" text-decoration="none" x="813.89453125" y="184"></text></g></g><g transform="translate(-46,-70) scale(1,1)"><g><path fill="none" stroke="none"/><text fill="#000000" stroke="none" font-family="Arial" font-size="13px" font-style="normal" font-weight="normal" text-decoration="none" x="661" y="190"></text></g></g><g transform="translate(-46,-70) scale(1,1)"><path fill="none" stroke="#000000" d="M 710 560 L 780 560 M 780 560 A 8 8 0 0 0 788 552 L 788 411" stroke-miterlimit="10"/></g><g transform="translate(-46,-70) scale(1,1)"><path fill="none" stroke="#000000" d="M 788 425 L 795 411" stroke-miterlimit="10"/></g><g transform="translate(-46,-70) scale(1,1)"><path fill="none" stroke="#000000" d="M 788 425 L 781 411" stroke-miterlimit="10"/></g><g transform="translate(-46,-70) scale(1,1)"><path fill="#FFFFFF" stroke="none" d="M 781 433 C 781 429.1340064 784.1340064 426 788 426 C 791.8659936 426 795 429.1340064 795 433 C 795 436.8659936 791.8659936 440 788 440 C 784.1340064 440 781 436.8659936 781 433 Z"/></g><g transform="translate(-46,-70) scale(1,1)"><path fill="none" stroke="#000000" d="M 781 433 C 781 429.1340064 784.1340064 426 788 426 C 791.8659936 426 795 429.1340064 795 433 C 795 436.8659936 791.8659936 440 788 440 C 784.1340064 440 781 436.8659936 781 433 Z" stroke-miterlimit="10"/></g><g transform="translate(-46,-70) scale(1,1)"><path fill="none" stroke="#000000" d="M 724 560 L 710 553" stroke-miterlimit="10"/></g><g transform="translate(-46,-70) scale(1,1)"><path fill="none" stroke="#000000" d="M 724 560 L 710 567" stroke-miterlimit="10"/></g><g transform="translate(-46,-70) scale(1,1)"><path fill="#FFFFFF" stroke="none" d="M 725 560 C 725 556.1340064 728.1340064 553 732 553 C 735.8659936 553 739 556.1340064 739 560 C 739 563.8659936 735.8659936 567 732 567 C 728.1340064 567 725 563.8659936 725 560 Z"/></g><g transform="translate(-46,-70) scale(1,1)"><path fill="none" stroke="#000000" d="M 725 560 C 725 556.1340064 728.1340064 553 732 553 C 735.8659936 553 739 556.1340064 739 560 C 739 563.8659936 735.8659936 567 732 567 C 728.1340064 567 725 563.8659936 725 560 Z" stroke-miterlimit="10"/></g><g transform="translate(-46,-70) scale(1,1)"><g><path fill="none" stroke="none"/><text fill="#000000" stroke="none" font-family="Arial" font-size="13px" font-style="normal" font-weight="normal" text-decoration="none" x="734.5" y="545"></text></g></g><g transform="translate(-46,-70) scale(1,1)"><g><path fill="none" stroke="none"/><text fill="#000000" stroke="none" font-family="Arial" font-size="13px" font-style="normal" font-weight="normal" text-decoration="none" x="772.5" y="436"></text></g></g><g transform="translate(-46,-70) scale(1,1)"><path fill="none" stroke="#000000" d="M 438 456 L 438 568 M 438 568 A 8 8 0 0 0 446 576 L 536 576" stroke-miterlimit="10"/></g><g transform="translate(-46,-70) scale(1,1)"><path fill="none" stroke="#000000" d="M 522 576 L 536 583" stroke-miterlimit="10"/></g><g transform="translate(-46,-70) scale(1,1)"><path fill="none" stroke="#000000" d="M 522 576 L 536 569" stroke-miterlimit="10"/></g><g transform="translate(-46,-70) scale(1,1)"><path fill="#FFFFFF" stroke="none" d="M 507 576 C 507 572.1340064 510.1340064 569 514 569 C 517.8659936 569 521 572.1340064 521 576 C 521 579.8659936 517.8659936 583 514 583 C 510.1340064 583 507 579.8659936 507 576 Z"/></g><g transform="translate(-46,-70) scale(1,1)"><path fill="none" stroke="#000000" d="M 507 576 C 507 572.1340064 510.1340064 569 514 569 C 517.8659936 569 521 572.1340064 521 576 C 521 579.8659936 517.8659936 583 514 583 C 510.1340064 583 507 579.8659936 507 576 Z" stroke-miterlimit="10"/></g><g transform="translate(-46,-70) scale(1,1)"><path fill="none" stroke="#000000" d="M 438 470 L 445 456" stroke-miterlimit="10"/></g><g transform="translate(-46,-70) scale(1,1)"><path fill="none" stroke="#000000" d="M 438 470 L 431 456" stroke-miterlimit="10"/></g><g transform="translate(-46,-70) scale(1,1)"><path fill="#FFFFFF" stroke="none" d="M 431 478 C 431 474.1340064 434.1340064 471 438 471 C 441.8659936 471 445 474.1340064 445 478 C 445 481.8659936 441.8659936 485 438 485 C 434.1340064 485 431 481.8659936 431 478 Z"/></g><g transform="translate(-46,-70) scale(1,1)"><path fill="none" stroke="#000000" d="M 431 478 C 431 474.1340064 434.1340064 471 438 471 C 441.8659936 471 445 474.1340064 445 478 C 445 481.8659936 441.8659936 485 438 485 C 434.1340064 485 431 481.8659936 431 478 Z" stroke-miterlimit="10"/></g><g transform="translate(-46,-70) scale(1,1)"><g><path fill="none" stroke="none"/><text fill="#000000" stroke="none" font-family="Arial" font-size="13px" font-style="normal" font-weight="normal" text-decoration="none" x="452.5" y="481"></text></g></g><g transform="translate(-46,-70) scale(1,1)"><g><path fill="none" stroke="none"/><text fill="#000000" stroke="none" font-family="Arial" font-size="13px" font-style="normal" font-weight="normal" text-decoration="none" x="509.5" y="561"></text></g></g><g transform="translate(-46,-70) scale(1,1)"><path fill="none" stroke="#000000" d="M 539 144 L 656 144" stroke-miterlimit="10"/></g><g transform="translate(-46,-70) scale(1,1)"><path fill="none" stroke="#000000" d="M 642 144 L 656 151" stroke-miterlimit="10"/></g><g transform="translate(-46,-70) scale(1,1)"><path fill="none" stroke="#000000" d="M 642 144 L 656 137" stroke-miterlimit="10"/></g><g transform="translate(-46,-70) scale(1,1)"><path fill="#FFFFFF" stroke="none" d="M 627 144 C 627 140.1340064 630.1340064 137 634 137 C 637.8659936 137 641 140.1340064 641 144 C 641 147.8659936 637.8659936 151 634 151 C 630.1340064 151 627 147.8659936 627 144 Z"/></g><g transform="translate(-46,-70) scale(1,1)"><path fill="none" stroke="#000000" d="M 627 144 C 627 140.1340064 630.1340064 137 634 137 C 637.8659936 137 641 140.1340064 641 144 C 641 147.8659936 637.8659936 151 634 151 C 630.1340064 151 627 147.8659936 627 144 Z" stroke-miterlimit="10"/></g><g transform="translate(-46,-70) scale(1,1)"><path fill="none" stroke="#000000" d="M 546 137 L 546 151" stroke-miterlimit="10"/></g><g transform="translate(-46,-70) scale(1,1)"><path fill="none" stroke="#000000" d="M 553 137 L 553 151" stroke-miterlimit="10"/></g><g transform="translate(-46,-70) scale(1,1)"><g><path fill="none" stroke="none"/><text fill="#000000" stroke="none" font-family="Arial" font-size="13px" font-style="normal" font-weight="normal" text-decoration="none" x="563.5" y="129"></text></g></g><g transform="translate(-46,-70) scale(1,1)"><g><path fill="none" stroke="none"/><text fill="#000000" stroke="none" font-family="Arial" font-size="13px" font-style="normal" font-weight="normal" text-decoration="none" x="629.5" y="129"></text></g></g><g transform="translate(-46,-70) scale(1,1)"><path fill="none" stroke="#000000" d="M 784 336 L 784 201" stroke-miterlimit="10"/></g><g transform="translate(-46,-70) scale(1,1)"><path fill="none" stroke="#000000" d="M 784 215 L 791 201" stroke-miterlimit="10"/></g><g transform="translate(-46,-70) scale(1,1)"><path fill="none" stroke="#000000" d="M 784 215 L 777 201" stroke-miterlimit="10"/></g><g transform="translate(-46,-70) scale(1,1)"><path fill="#FFFFFF" stroke="none" d="M 777 223 C 777 219.1340064 780.1340064 216 784 216 C 787.8659936 216 791 219.1340064 791 223 C 791 226.8659936 787.8659936 230 784 230 C 780.1340064 230 777 226.8659936 777 223 Z"/></g><g transform="translate(-46,-70) scale(1,1)"><path fill="none" stroke="#000000" d="M 777 223 C 777 219.1340064 780.1340064 216 784 216 C 787.8659936 216 791 219.1340064 791 223 C 791 226.8659936 787.8659936 230 784 230 C 780.1340064 230 777 226.8659936 777 223 Z" stroke-miterlimit="10"/></g><g transform="translate(-46,-70) scale(1,1)"><path fill="none" stroke="#000000" d="M 777 329 L 791 329" stroke-miterlimit="10"/></g><g transform="translate(-46,-70) scale(1,1)"><path fill="none" stroke="#000000" d="M 777 322 L 791 322" stroke-miterlimit="10"/></g><g transform="translate(-46,-70) scale(1,1)"><g><path fill="none" stroke="none"/><text fill="#000000" stroke="none" font-family="Arial" font-size="13px" font-style="normal" font-weight="normal" text-decoration="none" x="768.5" y="310"></text></g></g><g transform="translate(-46,-70) scale(1,1)"><g><path fill="none" stroke="none"/><text fill="#000000" stroke="none" font-family="Arial" font-size="13px" font-style="normal" font-weight="normal" text-decoration="none" x="768.5" y="226"></text></g></g><g transform="translate(-46,-70) scale(1,1)"><path fill="none" stroke="#000000" d="M 438 336 L 438 256 M 438 256 A 8 8 0 0 1 446 248 L 680 248 M 680 248 A 8 8 0 0 0 688 240 L 688 201" stroke-miterlimit="10"/></g><g transform="translate(-46,-70) scale(1,1)"><path fill="none" stroke="#000000" d="M 688 215 L 695 201" stroke-miterlimit="10"/></g><g transform="translate(-46,-70) scale(1,1)"><path fill="none" stroke="#000000" d="M 688 215 L 681 201" stroke-miterlimit="10"/></g><g transform="translate(-46,-70) scale(1,1)"><path fill="#FFFFFF" stroke="none" d="M 681 223 C 681 219.1340064 684.1340064 216 688 216 C 691.8659936 216 695 219.1340064 695 223 C 695 226.8659936 691.8659936 230 688 230 C 684.1340064 230 681 226.8659936 681 223 Z"/></g><g transform="translate(-46,-70) scale(1,1)"><path fill="none" stroke="#000000" d="M 681 223 C 681 219.1340064 684.1340064 216 688 216 C 691.8659936 216 695 219.1340064 695 223 C 695 226.8659936 691.8659936 230 688 230 C 684.1340064 230 681 226.8659936 681 223 Z" stroke-miterlimit="10"/></g><g transform="translate(-46,-70) scale(1,1)"><path fill="none" stroke="#000000" d="M 438 322 L 431 336" stroke-miterlimit="10"/></g><g transform="translate(-46,-70) scale(1,1)"><path fill="none" stroke="#000000" d="M 438 322 L 445 336" stroke-miterlimit="10"/></g><g transform="translate(-46,-70) scale(1,1)"><path fill="#FFFFFF" stroke="none" d="M 431 314 C 431 310.1340064 434.1340064 307 438 307 C 441.8659936 307 445 310.1340064 445 314 C 445 317.8659936 441.8659936 321 438 321 C 434.1340064 321 431 317.8659936 431 314 Z"/></g><g transform="translate(-46,-70) scale(1,1)"><path fill="none" stroke="#000000" d="M 431 314 C 431 310.1340064 434.1340064 307 438 307 C 441.8659936 307 445 310.1340064 445 314 C 445 317.8659936 441.8659936 321 438 321 C 434.1340064 321 431 317.8659936 431 314 Z" stroke-miterlimit="10"/></g><g transform="translate(-46,-70) scale(1,1)"><g><path fill="none" stroke="none"/><text fill="#000000" stroke="none" font-family="Arial" font-size="13px" font-style="normal" font-weight="normal" text-decoration="none" x="422.5" y="310"></text></g></g><g transform="translate(-46,-70) scale(1,1)"><g><path fill="none" stroke="none"/><text fill="#000000" stroke="none" font-family="Arial" font-size="13px" font-style="normal" font-weight="normal" text-decoration="none" x="672.5" y="226"></text></g></g></g></svg>