<svg version="1.1" xmlns="http://www.w3.org/2000/svg" xmlns:xlink="http://www.w3.org/1999/xlink" width="555.51904296875" height="200"><defs/><g><g transform="translate(-214,-86) scale(1,1)"><rect fill="#C0C0C0" stroke="none" x="231" y="103" width="181.4326171875" height="120" opacity="0.2"/></g><g transform="translate(-214,-86) scale(1,1)"><rect fill="#ffffff" stroke="none" x="224" y="96" width="181.4326171875" height="120"/></g><g transform="translate(-214,-86) scale(1,1)"><path fill="none" stroke="#000000" d="M 224 96 L 405.4326171875 96 L 405.4326171875 216 L 224 216 L 224 96 Z Z" stroke-miterlimit="10"/></g><g transform="translate(-214,-86) scale(1,1)"><path fill="none" stroke="#000000" d="M 224 119 L 405.4326171875 119" stroke-miterlimit="10"/></g><g transform="translate(-214,-86) scale(1,1)"><path fill="none" stroke="#000000" d="M 252.05908203125 119 L 252.05908203125 216" stroke-miterlimit="10"/></g><g transform="translate(-214,-86) scale(1,1)"><path fill="none" stroke="#000000" d="M 396.4326171875 119 L 396.4326171875 216" stroke-miterlimit="10"/></g><g transform="translate(-214,-86) scale(1,1)"><g><path fill="none" stroke="none"/><text fill="#000000" stroke="none" font-family="Arial" font-size="13px" font-style="normal" font-weight="bold" text-decoration="none" x="297.015869140625" y="111.7099609375">Order</text></g></g><g transform="translate(-214,-86) scale(1,1)"><g><path fill="none" stroke="none"/><text fill="#000000" stroke="none" font-family="Arial" font-size="13px" font-style="normal" font-weight="normal" text-decoration="none" x="229" y="132.94384765625">PK</text></g></g><g transform="translate(-214,-86) scale(1,1)"><g><path fill="none" stroke="none"/><text fill="#000000" stroke="none" font-family="Arial" font-size="13px" font-style="normal" font-weight="normal" text-decoration="none" x="257.05908203125" y="133.419921875">id</text></g></g><g transform="translate(-214,-86) scale(1,1)"><g><path fill="none" stroke="none"/><text fill="#000000" stroke="none" font-family="Arial" font-size="13px" font-style="normal" font-weight="normal" text-decoration="none" x="401.4326171875" y="124"></text></g></g><g transform="translate(-214,-86) scale(1,1)"><g><path fill="none" stroke="none"/><text fill="#000000" stroke="none" font-family="Arial" font-size="13px" font-style="normal" font-weight="normal" text-decoration="none" x="229" y="130"></text></g></g><g transform="translate(-214,-86) scale(1,1)"><g><path fill="none" stroke="none"/><text fill="#000000" stroke="none" font-family="Arial" font-size="13px" font-style="normal" font-weight="normal" text-decoration="none" x="229" y="139"></text></g></g><g transform="translate(-214,-86) scale(1,1)"><g><path fill="none" stroke="none"/><text fill="#000000" stroke="none" font-family="Arial" font-size="13px" font-style="normal" font-weight="normal" text-decoration="none" x="257.05908203125" y="148.419921875">total</text></g></g><g transform="translate(-214,-86) scale(1,1)"><g><path fill="none" stroke="none"/><text fill="#000000" stroke="none" font-family="Arial" font-size="13px" font-style="normal" font-weight="normal" text-decoration="none" x="401.4326171875" y="139"></text></g></g><g transform="translate(-214,-86) scale(1,1)"><g><path fill="none" stroke="none"/><text fill="#000000" stroke="none" font-family="Arial" font-size="13px" font-style="normal" font-weight="normal" text-decoration="none" x="229" y="145"></text></g></g><g transform="translate(-214,-86) scale(1,1)"><g><path fill="none" stroke="none"/><text fill="#000000" stroke="none" font-family="Arial" font-size="13px" font-style="normal" font-weight="normal" text-decoration="none" x="229" y="154"></text></g></g><g transform="translate(-214,-86) scale(1,1)"><g><path fill="none" stroke="none"/><text fill="#000000" stroke="none" font-family="Arial" font-size="13px" font-style="normal" font-weight="normal" text-decoration="none" x="257.05908203125" y="162.404296875">status</text></g></g><g transform="translate(-214,-86) scale(1,1)"><g><path fill="none" stroke="none"/><text fill="#000000" stroke="none" font-family="Arial" font-size="13px" font-style="normal" font-weight="normal" text-decoration="none" x="401.4326171875" y="154"></text></g></g><g transform="translate(-214,-86) scale(1,1)"><g><path fill="none" stroke="none"/><text fill="#000000" stroke="none" font-family="Arial" font-size="13px" font-style="normal" font-weight="normal" text-decoration="none" x="229" y="160"></text></g></g><g transform="translate(-214,-86) scale(1,1)"><g><path fill="none" stroke="none"/><text fill="#000000" stroke="none" font-family="Arial" font-size="13px" font-style="normal" font-weight="normal" text-decoration="none" x="229" y="169"></text></g></g><g transform="translate(-214,-86) scale(1,1)"><g><path fill="none" stroke="none"/><text fill="#000000" stroke="none" font-family="Arial" font-size="13px" font-style="normal" font-weight="normal" text-decoration="none" x="257.05908203125" y="178.419921875">customer_account_id</text></g></g><g transform="translate(-214,-86) scale(1,1)"><g><path fill="none" stroke="none"/><text fill="#000000" stroke="none" font-family="Arial" font-size="13px" font-style="normal" font-weight="normal" text-decoration="none" x="401.4326171875" y="169"></text></g></g><g transform="translate(-214,-86) scale(1,1)"><g><path fill="none" stroke="none"/><text fill="#000000" stroke="none" font-family="Arial" font-size="13px" font-style="normal" font-weight="normal" text-decoration="none" x="229" y="175"></text></g></g><g transform="translate(-214,-86) scale(1,1)"><g><path fill="none" stroke="none"/><text fill="#000000" stroke="none" font-family="Arial" font-size="13px" font-style="normal" font-weight="normal" text-decoration="none" x="229" y="184"></text></g></g><g transform="translate(-214,-86) scale(1,1)"><g><path fill="none" stroke="none"/><text fill="#000000" stroke="none" font-family="Arial" font-size="13px" font-style="normal" font-weight="normal" text-decoration="none" x="257.05908203125" y="193.419921875">created_at</text></g></g><g transform="translate(-214,-86) scale(1,1)"><g><path fill="none" stroke="none"/><text fill="#000000" stroke="none" font-family="Arial" font-size="13px" font-style="normal" font-weight="normal" text-decoration="none" x="401.4326171875" y="184"></text></g></g><g transform="translate(-214,-86) scale(1,1)"><g><path fill="none" stroke="none"/><text fill="#000000" stroke="none" font-family="Arial" font-size="13px" font-style="normal" font-weight="normal" text-decoration="none" x="229" y="190"></text></g></g><g transform="translate(-214,-86) scale(1,1)"><g><path fill="none" stroke="none"/><text fill="#000000" stroke="none" font-family="Arial" font-size="13px" font-style="normal" font-weight="normal" text-decoration="none" x="229" y="199"></text></g></g><g transform="translate(-214,-86) scale(1,1)"><g><path fill="none" stroke="none"/><text fill="#000000" stroke="none" font-family="Arial" font-size="13px" font-style="normal" font-weight="normal" text-decoration="none" x="257.05908203125" y="208.419921875">updated_at</text></g></g><g transform="translate(-214,-86) scale(1,1)"><g><path fill="none" stroke="none"/><text fill="#000000" stroke="none" font-family="Arial" font-size="13px" font-style="normal" font-weight="normal" text-decoration="none" x="401.4326171875" y="199"></text></g></g><g transform="translate(-214,-86) scale(1,1)"><g><path fill="none" stroke="none"/><text fill="#000000" stroke="none" font-family="Arial" font-size="13px" font-style="normal" font-weight="normal" text-decoration="none" x="229" y="205"></text></g></g><g transform="translate(-214,-86) scale(1,1)"><rect fill="#C0C0C0" stroke="none" x="575" y="103" width="191.51904296875" height="180" opacity="0.2"/></g><g transform="translate(-214,-86) scale(1,1)"><rect fill="#ffffff" stroke="none" x="568" y="96" width="191.51904296875" height="180"/></g><g transform="translate(-214,-86) scale(1,1)"><path fill="none" stroke="#000000" d="M 568 96 L 759.51904296875 96 L 759.51904296875 276 L 568 276 L 568 96 Z Z" stroke-miterlimit="10"/></g><g transform="translate(-214,-86) scale(1,1)"><path fill="none" stroke="#000000" d="M 568 119 L 759.51904296875 119" stroke-miterlimit="10"/></g><g transform="translate(-214,-86) scale(1,1)"><path fill="none" stroke="#000000" d="M 596.05908203125 119 L 596.05908203125 276" stroke-miterlimit="10"/></g><g transform="translate(-214,-86) scale(1,1)"><path fill="none" stroke="#000000" d="M 750.51904296875 119 L 750.51904296875 276" stroke-miterlimit="10"/></g><g transform="translate(-214,-86) scale(1,1)"><g><path fill="none" stroke="none"/><text fill="#000000" stroke="none" font-family="Arial" font-size="13px" font-style="normal" font-weight="bold" text-decoration="none" x="632.697265625" y="111.7099609375">OrderLine</text></g></g><g transform="translate(-214,-86) scale(1,1)"><g><path fill="none" stroke="none"/><text fill="#000000" stroke="none" font-family="Arial" font-size="13px" font-style="normal" font-weight="normal" text-decoration="none" x="573" y="132.94384765625">PK</text></g></g><g transform="translate(-214,-86) scale(1,1)"><g><path fill="none" stroke="none"/><text fill="#000000" stroke="none" font-family="Arial" font-size="13px" font-style="normal" font-weight="normal" text-decoration="none" x="601.05908203125" y="133.419921875">id</text></g></g><g transform="translate(-214,-86) scale(1,1)"><g><path fill="none" stroke="none"/><text fill="#000000" stroke="none" font-family="Arial" font-size="13px" font-style="normal" font-weight="normal" text-decoration="none" x="755.51904296875" y="124"></text></g></g><g transform="translate(-214,-86) scale(1,1)"><g><path fill="none" stroke="none"/><text fill="#000000" stroke="none" font-family="Arial" font-size="13px" font-style="normal" font-weight="normal" text-decoration="none" x="573" y="130"></text></g></g><g transform="translate(-214,-86) scale(1,1)"><g><path fill="none" stroke="none"/><text fill="#000000" stroke="none" font-family="Arial" font-size="13px" font-style="normal" font-weight="normal" text-decoration="none" x="573" y="147.94384765625">FK</text></g></g><g transform="translate(-214,-86) scale(1,1)"><g><path fill="none" stroke="none"/><text fill="#000000" stroke="none" font-family="Arial" font-size="13px" font-style="normal" font-weight="normal" text-decoration="none" x="601.05908203125" y="148.419921875">order_id</text></g></g><g transform="translate(-214,-86) scale(1,1)"><g><path fill="none" stroke="none"/><text fill="#000000" stroke="none" font-family="Arial" font-size="13px" font-style="normal" font-weight="normal" text-decoration="none" x="755.51904296875" y="139"></text></g></g><g transform="translate(-214,-86) scale(1,1)"><g><path fill="none" stroke="none"/><text fill="#000000" stroke="none" font-family="Arial" font-size="13px" font-style="normal" font-weight="normal" text-decoration="none" x="573" y="145"></text></g></g><g transform="translate(-214,-86) scale(1,1)"><g><path fill="none" stroke="none"/><text fill="#000000" stroke="none" font-family="Arial" font-size="13px" font-style="normal" font-weight="normal" text-decoration="none" x="573" y="154"></text></g></g><g transform="translate(-214,-86) scale(1,1)"><g><path fill="none" stroke="none"/><text fill="#000000" stroke="none" font-family="Arial" font-size="13px" font-style="normal" font-weight="normal" text-decoration="none" x="601.05908203125" y="163.419921875">product_description_id</text></g></g><g transform="translate(-214,-86) scale(1,1)"><g><path fill="none" stroke="none"/><text fill="#000000" stroke="none" font-family="Arial" font-size="13px" font-style="normal" font-weight="normal" text-decoration="none" x="755.51904296875" y="154"></text></g></g><g transform="translate(-214,-86) scale(1,1)"><g><path fill="none" stroke="none"/><text fill="#000000" stroke="none" font-family="Arial" font-size="13px" font-style="normal" font-weight="normal" text-decoration="none" x="573" y="160"></text></g></g><g transform="translate(-214,-86) scale(1,1)"><g><path fill="none" stroke="none"/><text fill="#000000" stroke="none" font-family="Arial" font-size="13px" font-style="normal" font-weight="normal" text-decoration="none" x="573" y="169"></text></g></g><g transform="translate(-214,-86) scale(1,1)"><g><path fill="none" stroke="none"/><text fill="#000000" stroke="none" font-family="Arial" font-size="13px" font-style="normal" font-weight="normal" text-decoration="none" x="601.05908203125" y="178.419921875">price</text></g></g><g transform="translate(-214,-86) scale(1,1)"><g><path fill="none" stroke="none"/><text fill="#000000" stroke="none" font-family="Arial" font-size="13px" font-style="normal" font-weight="normal" text-decoration="none" x="755.51904296875" y="169"></text></g></g><g transform="translate(-214,-86) scale(1,1)"><g><path fill="none" stroke="none"/><text fill="#000000" stroke="none" font-family="Arial" font-size="13px" font-style="normal" font-weight="normal" text-decoration="none" x="573" y="175"></text></g></g><g transform="translate(-214,-86) scale(1,1)"><g><path fill="none" stroke="none"/><text fill="#000000" stroke="none" font-family="Arial" font-size="13px" font-style="normal" font-weight="normal" text-decoration="none" x="573" y="184"></text></g></g><g transform="translate(-214,-86) scale(1,1)"><g><path fill="none" stroke="none"/><text fill="#000000" stroke="none" font-family="Arial" font-size="13px" font-style="normal" font-weight="normal" text-decoration="none" x="601.05908203125" y="193.419921875">quantity</text></g></g><g transform="translate(-214,-86) scale(1,1)"><g><path fill="none" stroke="none"/><text fill="#000000" stroke="none" font-family="Arial" font-size="13px" font-style="normal" font-weight="normal" text-decoration="none" x="755.51904296875" y="184"></text></g></g><g transform="translate(-214,-86) scale(1,1)"><g><path fill="none" stroke="none"/><text fill="#000000" stroke="none" font-family="Arial" font-size="13px" font-style="normal" font-weight="normal" text-decoration="none" x="573" y="190"></text></g></g><g transform="translate(-214,-86) scale(1,1)"><g><path fill="none" stroke="none"/><text fill="#000000" stroke="none" font-family="Arial" font-size="13px" font-style="normal" font-weight="normal" text-decoration="none" x="573" y="199"></text></g></g><g transform="translate(-214,-86) scale(1,1)"><g><path fill="none" stroke="none"/><text fill="#000000" stroke="none" font-family="Arial" font-size="13px" font-style="normal" font-weight="normal" text-decoration="none" x="601.05908203125" y="208.419921875">discount</text></g></g><g transform="translate(-214,-86) scale(1,1)"><g><path fill="none" stroke="none"/><text fill="#000000" stroke="none" font-family="Arial" font-size="13px" font-style="normal" font-weight="normal" text-decoration="none" x="755.51904296875" y="199"></text></g></g><g transform="translate(-214,-86) scale(1,1)"><g><path fill="none" stroke="none"/><text fill="#000000" stroke="none" font-family="Arial" font-size="13px" font-style="normal" font-weight="normal" text-decoration="none" x="573" y="205"></text></g></g><g transform="translate(-214,-86) scale(1,1)"><g><path fill="none" stroke="none"/><text fill="#000000" stroke="none" font-family="Arial" font-size="13px" font-style="normal" font-weight="normal" text-decoration="none" x="573" y="214"></text></g></g><g transform="translate(-214,-86) scale(1,1)"><g><path fill="none" stroke="none"/><text fill="#000000" stroke="none" font-family="Arial" font-size="13px" font-style="normal" font-weight="normal" text-decoration="none" x="601.05908203125" y="223.419921875">unit</text></g></g><g transform="translate(-214,-86) scale(1,1)"><g><path fill="none" stroke="none"/><text fill="#000000" stroke="none" font-family="Arial" font-size="13px" font-style="normal" font-weight="normal" text-decoration="none" x="755.51904296875" y="214"></text></g></g><g transform="translate(-214,-86) scale(1,1)"><g><path fill="none" stroke="none"/><text fill="#000000" stroke="none" font-family="Arial" font-size="13px" font-style="normal" font-weight="normal" text-decoration="none" x="573" y="220"></text></g></g><g transform="translate(-214,-86) scale(1,1)"><g><path fill="none" stroke="none"/><text fill="#000000" stroke="none" font-family="Arial" font-size="13px" font-style="normal" font-weight="normal" text-decoration="none" x="573" y="229"></text></g></g><g transform="translate(-214,-86) scale(1,1)"><g><path fill="none" stroke="none"/><text fill="#000000" stroke="none" font-family="Arial" font-size="13px" font-style="normal" font-weight="normal" text-decoration="none" x="601.05908203125" y="238.419921875">subtotal</text></g></g><g transform="translate(-214,-86) scale(1,1)"><g><path fill="none" stroke="none"/><text fill="#000000" stroke="none" font-family="Arial" font-size="13px" font-style="normal" font-weight="normal" text-decoration="none" x="755.51904296875" y="229"></text></g></g><g transform="translate(-214,-86) scale(1,1)"><g><path fill="none" stroke="none"/><text fill="#000000" stroke="none" font-family="Arial" font-size="13px" font-style="normal" font-weight="normal" text-decoration="none" x="573" y="235"></text></g></g><g transform="translate(-214,-86) scale(1,1)"><g><path fill="none" stroke="none"/><text fill="#000000" stroke="none" font-family="Arial" font-size="13px" font-style="normal" font-weight="normal" text-decoration="none" x="573" y="244"></text></g></g><g transform="translate(-214,-86) scale(1,1)"><g><path fill="none" stroke="none"/><text fill="#000000" stroke="none" font-family="Arial" font-size="13px" font-style="normal" font-weight="normal" text-decoration="none" x="601.05908203125" y="253.419921875">created_at</text></g></g><g transform="translate(-214,-86) scale(1,1)"><g><path fill="none" stroke="none"/><text fill="#000000" stroke="none" font-family="Arial" font-size="13px" font-style="normal" font-weight="normal" text-decoration="none" x="755.51904296875" y="244"></text></g></g><g transform="translate(-214,-86) scale(1,1)"><g><path fill="none" stroke="none"/><text fill="#000000" stroke="none" font-family="Arial" font-size="13px" font-style="normal" font-weight="normal" text-decoration="none" x="573" y="250"></text></g></g><g transform="translate(-214,-86) scale(1,1)"><g><path fill="none" stroke="none"/><text fill="#000000" stroke="none" font-family="Arial" font-size="13px" font-style="normal" font-weight="normal" text-decoration="none" x="573" y="259"></text></g></g><g transform="translate(-214,-86) scale(1,1)"><g><path fill="none" stroke="none"/><text fill="#000000" stroke="none" font-family="Arial" font-size="13px" font-style="normal" font-weight="normal" text-decoration="none" x="601.05908203125" y="268.419921875">updated_at</text></g></g><g transform="translate(-214,-86) scale(1,1)"><g><path fill="none" stroke="none"/><text fill="#000000" stroke="none" font-family="Arial" font-size="13px" font-style="normal" font-weight="normal" text-decoration="none" x="755.51904296875" y="259"></text></g></g><g transform="translate(-214,-86) scale(1,1)"><g><path fill="none" stroke="none"/><text fill="#000000" stroke="none" font-family="Arial" font-size="13px" font-style="normal" font-weight="normal" text-decoration="none" x="573" y="265"></text></g></g><g transform="translate(-214,-86) scale(1,1)"><path fill="none" stroke="#000000" d="M 405 134 L 568 134" stroke-miterlimit="10"/></g><g transform="translate(-214,-86) scale(1,1)"><path fill="none" stroke="#000000" d="M 554 134 L 568 141" stroke-miterlimit="10"/></g><g transform="translate(-214,-86) scale(1,1)"><path fill="none" stroke="#000000" d="M 554 134 L 568 127" stroke-miterlimit="10"/></g><g transform="translate(-214,-86) scale(1,1)"><path fill="#FFFFFF" stroke="none" d="M 539 134 C 539 130.1340064 542.1340064 127 546 127 C 549.8659936 127 553 130.1340064 553 134 C 553 137.8659936 549.8659936 141 546 141 C 542.1340064 141 539 137.8659936 539 134 Z"/></g><g transform="translate(-214,-86) scale(1,1)"><path fill="none" stroke="#000000" d="M 539 134 C 539 130.1340064 542.1340064 127 546 127 C 549.8659936 127 553 130.1340064 553 134 C 553 137.8659936 549.8659936 141 546 141 C 542.1340064 141 539 137.8659936 539 134 Z" stroke-miterlimit="10"/></g><g transform="translate(-214,-86) scale(1,1)"><path fill="none" stroke="#000000" d="M 412 127 L 412 141" stroke-miterlimit="10"/></g><g transform="translate(-214,-86) scale(1,1)"><path fill="none" stroke="#000000" d="M 419 127 L 419 141" stroke-miterlimit="10"/></g><g transform="translate(-214,-86) scale(1,1)"><g><path fill="none" stroke="none"/><text fill="#000000" stroke="none" font-family="Arial" font-size="13px" font-style="normal" font-weight="normal" text-decoration="none" x="429.5" y="119"></text></g></g><g transform="translate(-214,-86) scale(1,1)"><g><path fill="none" stroke="none"/><text fill="#000000" stroke="none" font-family="Arial" font-size="13px" font-style="normal" font-weight="normal" text-decoration="none" x="541.5" y="119"></text></g></g></g></svg>